<?xml version='1.0' encoding='utf-8'?>
<svg height="567.30mm" viewBox="0.0 0.0 494.45 567.30" width="494.45mm" xmlns="http://www.w3.org/2000/svg" xmlns:cc="http://creativecommons.org/ns#" xmlns:dc="http://purl.org/dc/elements/1.1/" xmlns:inkscape="http://www.inkscape.org/namespaces/inkscape" xmlns:rdf="http://www.w3.org/1999/02/22-rdf-syntax-ns#" xmlns:svg="http://www.w3.org/2000/svg" xmlns:xlink="http://www.w3.org/1999/xlink">
<!--
UBox - Box various options for different stypes and lids

Created with Boxes.py (https://boxes.hackerspace-bamberg.de/)
Creation date: 2026-04-19 11:17:27
Command line (remove spaces between dashes): boxes UBox - -top_edge=f - -x=185 - -y=164 - -h=165 - -spacing=0.5
Url: https://boxes.hackerspace-bamberg.de/UBox?FingerJoint_style=rectangular&FingerJoint_surroundingspaces=2.0&FingerJoint_bottom_lip=0.0&FingerJoint_edge_width=1.0&FingerJoint_extra_length=0.0&FingerJoint_finger=2.0&FingerJoint_play=0.0&FingerJoint_space=2.0&FingerJoint_width=1.0&Stackable_angle=60&Stackable_bottom_stabilizers=0.0&Stackable_height=2.0&Stackable_holedistance=1.0&Stackable_width=4.0&Hinge_grip_percentage=0&Hinge_outset=0&Hinge_pinwidth=0.5&Hinge_axle=2.0&Hinge_grip_length=0&Hinge_hingestrength=1&CabinetHinge_bore=3.2&CabinetHinge_eyes_per_hinge=5&CabinetHinge_hinges=2&CabinetHinge_style=inside&CabinetHinge_eye=1.5&CabinetHinge_play=0.05&CabinetHinge_spacing=2.0&SlideOnLid_hole_width=0&SlideOnLid_second_pin=0&SlideOnLid_second_pin=1&SlideOnLid_spring=both&SlideOnLid_style=rectangular&SlideOnLid_surroundingspaces=2.0&SlideOnLid_bottom_lip=0.0&SlideOnLid_edge_width=1.0&SlideOnLid_extra_length=0.0&SlideOnLid_finger=3.0&SlideOnLid_play=0.05&SlideOnLid_space=2.0&SlideOnLid_width=1.0&Click_angle=5.0&Click_bottom_radius=0.1&Click_depth=3.0&RoundedTriangleEdge_height=50.0&RoundedTriangleEdge_r_hole=2.0&RoundedTriangleEdge_radius=30.0&RoundedTriangleEdge_outset=0.0&Mounting_d_head=6.5&Mounting_d_shaft=3.0&Mounting_margin=0.125&Mounting_num=2&Mounting_side=back&Mounting_style=straight+edge%2C+within&HandleEdge_height=20.0&HandleEdge_hole_height=75.0&HandleEdge_hole_width=40%3A40&HandleEdge_on_sides=0&HandleEdge_on_sides=1&HandleEdge_radius=10.0&HandleEdge_outset=1.0&Flex_stretch=1.05&Flex_connection=1.0&Flex_distance=0.5&Flex_width=5.0&Lid_handle=none&Lid_style=none&Lid_handle_height=8.0&Lid_height=4.0&Lid_play=0.1&top_edge=f&x=185&y=164&h=165&radius=30.0&thickness=3.0&burn=0.1&format=svg&labels=0&labels=1&reference=100.0&tabs=0.0&qr_code=0&inner_corners=loop&spacing=0.5&debug=0&language=en&render=2
Url short: https://boxes.hackerspace-bamberg.de/UBox?top_edge=f&x=185&y=164&h=165&spacing=0.5
SettingsUrl: https://boxes.hackerspace-bamberg.de/UBox?FingerJoint_style=rectangular&FingerJoint_surroundingspaces=2.0&FingerJoint_bottom_lip=0.0&FingerJoint_edge_width=1.0&FingerJoint_extra_length=0.0&FingerJoint_finger=2.0&FingerJoint_play=0.0&FingerJoint_space=2.0&FingerJoint_width=1.0&Stackable_angle=60&Stackable_bottom_stabilizers=0.0&Stackable_height=2.0&Stackable_holedistance=1.0&Stackable_width=4.0&Hinge_grip_percentage=0&Hinge_outset=0&Hinge_pinwidth=0.5&Hinge_axle=2.0&Hinge_grip_length=0&Hinge_hingestrength=1&CabinetHinge_bore=3.2&CabinetHinge_eyes_per_hinge=5&CabinetHinge_hinges=2&CabinetHinge_style=inside&CabinetHinge_eye=1.5&CabinetHinge_play=0.05&CabinetHinge_spacing=2.0&SlideOnLid_hole_width=0&SlideOnLid_second_pin=0&SlideOnLid_second_pin=1&SlideOnLid_spring=both&SlideOnLid_style=rectangular&SlideOnLid_surroundingspaces=2.0&SlideOnLid_bottom_lip=0.0&SlideOnLid_edge_width=1.0&SlideOnLid_extra_length=0.0&SlideOnLid_finger=3.0&SlideOnLid_play=0.05&SlideOnLid_space=2.0&SlideOnLid_width=1.0&Click_angle=5.0&Click_bottom_radius=0.1&Click_depth=3.0&RoundedTriangleEdge_height=50.0&RoundedTriangleEdge_r_hole=2.0&RoundedTriangleEdge_radius=30.0&RoundedTriangleEdge_outset=0.0&Mounting_d_head=6.5&Mounting_d_shaft=3.0&Mounting_margin=0.125&Mounting_num=2&Mounting_side=back&Mounting_style=straight+edge%2C+within&HandleEdge_height=20.0&HandleEdge_hole_height=75.0&HandleEdge_hole_width=40%3A40&HandleEdge_on_sides=0&HandleEdge_on_sides=1&HandleEdge_radius=10.0&HandleEdge_outset=1.0&Flex_stretch=1.05&Flex_connection=1.0&Flex_distance=0.5&Flex_width=5.0&Lid_handle=none&Lid_style=none&Lid_handle_height=8.0&Lid_height=4.0&Lid_play=0.1&top_edge=f&x=185&y=164&h=165&radius=30.0&thickness=3.0&burn=0.1&format=svg&labels=0&labels=1&reference=100.0&tabs=0.0&qr_code=0&inner_corners=loop&spacing=0.5&debug=0&language=en&render=2
SettingsUrl short: https://boxes.hackerspace-bamberg.de/UBox?top_edge=f&x=185&y=164&h=165&spacing=0.5
-->
<title>UBox</title>
<metadata>
<rdf:RDF><cc:Work>
<dc:title>FlexBox - UBox</dc:title>
<dc:date>2026-04-19 11:17:27</dc:date>
<dc:source>https://boxes.hackerspace-bamberg.de/UBox?FingerJoint_style=rectangular&amp;FingerJoint_surroundingspaces=2.0&amp;FingerJoint_bottom_lip=0.0&amp;FingerJoint_edge_width=1.0&amp;FingerJoint_extra_length=0.0&amp;FingerJoint_finger=2.0&amp;FingerJoint_play=0.0&amp;FingerJoint_space=2.0&amp;FingerJoint_width=1.0&amp;Stackable_angle=60&amp;Stackable_bottom_stabilizers=0.0&amp;Stackable_height=2.0&amp;Stackable_holedistance=1.0&amp;Stackable_width=4.0&amp;Hinge_grip_percentage=0&amp;Hinge_outset=0&amp;Hinge_pinwidth=0.5&amp;Hinge_axle=2.0&amp;Hinge_grip_length=0&amp;Hinge_hingestrength=1&amp;CabinetHinge_bore=3.2&amp;CabinetHinge_eyes_per_hinge=5&amp;CabinetHinge_hinges=2&amp;CabinetHinge_style=inside&amp;CabinetHinge_eye=1.5&amp;CabinetHinge_play=0.05&amp;CabinetHinge_spacing=2.0&amp;SlideOnLid_hole_width=0&amp;SlideOnLid_second_pin=0&amp;SlideOnLid_second_pin=1&amp;SlideOnLid_spring=both&amp;SlideOnLid_style=rectangular&amp;SlideOnLid_surroundingspaces=2.0&amp;SlideOnLid_bottom_lip=0.0&amp;SlideOnLid_edge_width=1.0&amp;SlideOnLid_extra_length=0.0&amp;SlideOnLid_finger=3.0&amp;SlideOnLid_play=0.05&amp;SlideOnLid_space=2.0&amp;SlideOnLid_width=1.0&amp;Click_angle=5.0&amp;Click_bottom_radius=0.1&amp;Click_depth=3.0&amp;RoundedTriangleEdge_height=50.0&amp;RoundedTriangleEdge_r_hole=2.0&amp;RoundedTriangleEdge_radius=30.0&amp;RoundedTriangleEdge_outset=0.0&amp;Mounting_d_head=6.5&amp;Mounting_d_shaft=3.0&amp;Mounting_margin=0.125&amp;Mounting_num=2&amp;Mounting_side=back&amp;Mounting_style=straight+edge%2C+within&amp;HandleEdge_height=20.0&amp;HandleEdge_hole_height=75.0&amp;HandleEdge_hole_width=40%3A40&amp;HandleEdge_on_sides=0&amp;HandleEdge_on_sides=1&amp;HandleEdge_radius=10.0&amp;HandleEdge_outset=1.0&amp;Flex_stretch=1.05&amp;Flex_connection=1.0&amp;Flex_distance=0.5&amp;Flex_width=5.0&amp;Lid_handle=none&amp;Lid_style=none&amp;Lid_handle_height=8.0&amp;Lid_height=4.0&amp;Lid_play=0.1&amp;top_edge=f&amp;x=185&amp;y=164&amp;h=165&amp;radius=30.0&amp;thickness=3.0&amp;burn=0.1&amp;format=svg&amp;labels=0&amp;labels=1&amp;reference=100.0&amp;tabs=0.0&amp;qr_code=0&amp;inner_corners=loop&amp;spacing=0.5&amp;debug=0&amp;language=en&amp;render=2</dc:source>
<dc:source>https://boxes.hackerspace-bamberg.de/UBox?top_edge=f&amp;x=185&amp;y=164&amp;h=165&amp;spacing=0.5</dc:source>
<dc:description>Box various options for different stypes and lids

Created with Boxes.py (https://boxes.hackerspace-bamberg.de/)
Command line: boxes UBox --FingerJoint_style=rectangular --FingerJoint_surroundingspaces=2.0 --FingerJoint_bottom_lip=0.0 --FingerJoint_edge_width=1.0 --FingerJoint_extra_length=0.0 --FingerJoint_finger=2.0 --FingerJoint_play=0.0 --FingerJoint_space=2.0 --FingerJoint_width=1.0 --Stackable_angle=60 --Stackable_bottom_stabilizers=0.0 --Stackable_height=2.0 --Stackable_holedistance=1.0 --Stackable_width=4.0 --Hinge_grip_percentage=0 --Hinge_outset=0 --Hinge_pinwidth=0.5 --Hinge_axle=2.0 --Hinge_grip_length=0 --Hinge_hingestrength=1 --CabinetHinge_bore=3.2 --CabinetHinge_eyes_per_hinge=5 --CabinetHinge_hinges=2 --CabinetHinge_style=inside --CabinetHinge_eye=1.5 --CabinetHinge_play=0.05 --CabinetHinge_spacing=2.0 --SlideOnLid_hole_width=0 --SlideOnLid_second_pin=0 --SlideOnLid_second_pin=1 --SlideOnLid_spring=both --SlideOnLid_style=rectangular --SlideOnLid_surroundingspaces=2.0 --SlideOnLid_bottom_lip=0.0 --SlideOnLid_edge_width=1.0 --SlideOnLid_extra_length=0.0 --SlideOnLid_finger=3.0 --SlideOnLid_play=0.05 --SlideOnLid_space=2.0 --SlideOnLid_width=1.0 --Click_angle=5.0 --Click_bottom_radius=0.1 --Click_depth=3.0 --RoundedTriangleEdge_height=50.0 --RoundedTriangleEdge_r_hole=2.0 --RoundedTriangleEdge_radius=30.0 --RoundedTriangleEdge_outset=0.0 --Mounting_d_head=6.5 --Mounting_d_shaft=3.0 --Mounting_margin=0.125 --Mounting_num=2 --Mounting_side=back '--Mounting_style=straight edge, within' --HandleEdge_height=20.0 --HandleEdge_hole_height=75.0 --HandleEdge_hole_width=40:40 --HandleEdge_on_sides=0 --HandleEdge_on_sides=1 --HandleEdge_radius=10.0 --HandleEdge_outset=1.0 --Flex_stretch=1.05 --Flex_connection=1.0 --Flex_distance=0.5 --Flex_width=5.0 --Lid_handle=none --Lid_style=none --Lid_handle_height=8.0 --Lid_height=4.0 --Lid_play=0.1 --top_edge=f --x=185 --y=164 --h=165 --radius=30.0 --thickness=3.0 --burn=0.1 --format=svg --labels=0 --labels=1 --reference=100.0 --tabs=0.0 --qr_code=0 --inner_corners=loop --spacing=0.5 --debug=0
Command line short: boxes UBox --top_edge=f --x=185 --y=164 --h=165 --spacing=0.5
Url: https://boxes.hackerspace-bamberg.de/UBox?FingerJoint_style=rectangular&amp;FingerJoint_surroundingspaces=2.0&amp;FingerJoint_bottom_lip=0.0&amp;FingerJoint_edge_width=1.0&amp;FingerJoint_extra_length=0.0&amp;FingerJoint_finger=2.0&amp;FingerJoint_play=0.0&amp;FingerJoint_space=2.0&amp;FingerJoint_width=1.0&amp;Stackable_angle=60&amp;Stackable_bottom_stabilizers=0.0&amp;Stackable_height=2.0&amp;Stackable_holedistance=1.0&amp;Stackable_width=4.0&amp;Hinge_grip_percentage=0&amp;Hinge_outset=0&amp;Hinge_pinwidth=0.5&amp;Hinge_axle=2.0&amp;Hinge_grip_length=0&amp;Hinge_hingestrength=1&amp;CabinetHinge_bore=3.2&amp;CabinetHinge_eyes_per_hinge=5&amp;CabinetHinge_hinges=2&amp;CabinetHinge_style=inside&amp;CabinetHinge_eye=1.5&amp;CabinetHinge_play=0.05&amp;CabinetHinge_spacing=2.0&amp;SlideOnLid_hole_width=0&amp;SlideOnLid_second_pin=0&amp;SlideOnLid_second_pin=1&amp;SlideOnLid_spring=both&amp;SlideOnLid_style=rectangular&amp;SlideOnLid_surroundingspaces=2.0&amp;SlideOnLid_bottom_lip=0.0&amp;SlideOnLid_edge_width=1.0&amp;SlideOnLid_extra_length=0.0&amp;SlideOnLid_finger=3.0&amp;SlideOnLid_play=0.05&amp;SlideOnLid_space=2.0&amp;SlideOnLid_width=1.0&amp;Click_angle=5.0&amp;Click_bottom_radius=0.1&amp;Click_depth=3.0&amp;RoundedTriangleEdge_height=50.0&amp;RoundedTriangleEdge_r_hole=2.0&amp;RoundedTriangleEdge_radius=30.0&amp;RoundedTriangleEdge_outset=0.0&amp;Mounting_d_head=6.5&amp;Mounting_d_shaft=3.0&amp;Mounting_margin=0.125&amp;Mounting_num=2&amp;Mounting_side=back&amp;Mounting_style=straight+edge%2C+within&amp;HandleEdge_height=20.0&amp;HandleEdge_hole_height=75.0&amp;HandleEdge_hole_width=40%3A40&amp;HandleEdge_on_sides=0&amp;HandleEdge_on_sides=1&amp;HandleEdge_radius=10.0&amp;HandleEdge_outset=1.0&amp;Flex_stretch=1.05&amp;Flex_connection=1.0&amp;Flex_distance=0.5&amp;Flex_width=5.0&amp;Lid_handle=none&amp;Lid_style=none&amp;Lid_handle_height=8.0&amp;Lid_height=4.0&amp;Lid_play=0.1&amp;top_edge=f&amp;x=185&amp;y=164&amp;h=165&amp;radius=30.0&amp;thickness=3.0&amp;burn=0.1&amp;format=svg&amp;labels=0&amp;labels=1&amp;reference=100.0&amp;tabs=0.0&amp;qr_code=0&amp;inner_corners=loop&amp;spacing=0.5&amp;debug=0&amp;language=en&amp;render=2
Url short: https://boxes.hackerspace-bamberg.de/UBox?top_edge=f&amp;x=185&amp;y=164&amp;h=165&amp;spacing=0.5
SettingsUrl: https://boxes.hackerspace-bamberg.de/UBox?FingerJoint_style=rectangular&amp;FingerJoint_surroundingspaces=2.0&amp;FingerJoint_bottom_lip=0.0&amp;FingerJoint_edge_width=1.0&amp;FingerJoint_extra_length=0.0&amp;FingerJoint_finger=2.0&amp;FingerJoint_play=0.0&amp;FingerJoint_space=2.0&amp;FingerJoint_width=1.0&amp;Stackable_angle=60&amp;Stackable_bottom_stabilizers=0.0&amp;Stackable_height=2.0&amp;Stackable_holedistance=1.0&amp;Stackable_width=4.0&amp;Hinge_grip_percentage=0&amp;Hinge_outset=0&amp;Hinge_pinwidth=0.5&amp;Hinge_axle=2.0&amp;Hinge_grip_length=0&amp;Hinge_hingestrength=1&amp;CabinetHinge_bore=3.2&amp;CabinetHinge_eyes_per_hinge=5&amp;CabinetHinge_hinges=2&amp;CabinetHinge_style=inside&amp;CabinetHinge_eye=1.5&amp;CabinetHinge_play=0.05&amp;CabinetHinge_spacing=2.0&amp;SlideOnLid_hole_width=0&amp;SlideOnLid_second_pin=0&amp;SlideOnLid_second_pin=1&amp;SlideOnLid_spring=both&amp;SlideOnLid_style=rectangular&amp;SlideOnLid_surroundingspaces=2.0&amp;SlideOnLid_bottom_lip=0.0&amp;SlideOnLid_edge_width=1.0&amp;SlideOnLid_extra_length=0.0&amp;SlideOnLid_finger=3.0&amp;SlideOnLid_play=0.05&amp;SlideOnLid_space=2.0&amp;SlideOnLid_width=1.0&amp;Click_angle=5.0&amp;Click_bottom_radius=0.1&amp;Click_depth=3.0&amp;RoundedTriangleEdge_height=50.0&amp;RoundedTriangleEdge_r_hole=2.0&amp;RoundedTriangleEdge_radius=30.0&amp;RoundedTriangleEdge_outset=0.0&amp;Mounting_d_head=6.5&amp;Mounting_d_shaft=3.0&amp;Mounting_margin=0.125&amp;Mounting_num=2&amp;Mounting_side=back&amp;Mounting_style=straight+edge%2C+within&amp;HandleEdge_height=20.0&amp;HandleEdge_hole_height=75.0&amp;HandleEdge_hole_width=40%3A40&amp;HandleEdge_on_sides=0&amp;HandleEdge_on_sides=1&amp;HandleEdge_radius=10.0&amp;HandleEdge_outset=1.0&amp;Flex_stretch=1.05&amp;Flex_connection=1.0&amp;Flex_distance=0.5&amp;Flex_width=5.0&amp;Lid_handle=none&amp;Lid_style=none&amp;Lid_handle_height=8.0&amp;Lid_height=4.0&amp;Lid_play=0.1&amp;top_edge=f&amp;x=185&amp;y=164&amp;h=165&amp;radius=30.0&amp;thickness=3.0&amp;burn=0.1&amp;format=svg&amp;labels=0&amp;labels=1&amp;reference=100.0&amp;tabs=0.0&amp;qr_code=0&amp;inner_corners=loop&amp;spacing=0.5&amp;debug=0&amp;language=en&amp;render=2
SettingsUrl short: https://boxes.hackerspace-bamberg.de/UBox?top_edge=f&amp;x=185&amp;y=164&amp;h=165&amp;spacing=0.5
</dc:description>
</cc:Work></rdf:RDF></metadata>
<g id="p-0" style="fill:none;stroke-linecap:round;stroke-linejoin:round;">
  <path d="M 10.100 557.300 H 110.100 V 547.300 H 10.100 V 557.300 Z" stroke="rgb(0,0,0)" stroke-width="0.20" />
  <text dominant-baseline="hanging" font-size="6px" style="font-family: sans-serif ; font-weight: normal; font-style: normal; fill: rgb(255,0,0)" text-anchor="middle" transform="matrix( 1.000 0.000 0.000 1.000 60.100 549.300 )">100.0mm, burn:0.10mm</text>
</g>
<g id="p-1" style="fill:none;stroke-linecap:round;stroke-linejoin:round;">
  <path d="M 43.100 542.600 H 50.000 C 50.100 542.600 50.000 542.500 50.000 542.600 V 545.500 C 50.000 545.555 50.045 545.600 50.100 545.600 H 56.100 C 56.155 545.600 56.200 545.555 56.200 545.500 V 542.600 C 56.200 542.500 56.100 542.600 56.200 542.600 H 62.000 C 62.100 542.600 62.000 542.500 62.000 542.600 V 545.500 C 62.000 545.555 62.045 545.600 62.100 545.600 H 68.100 C 68.155 545.600 68.200 545.555 68.200 545.500 V 542.600 C 68.200 542.500 68.100 542.600 68.200 542.600 H 74.000 C 74.100 542.600 74.000 542.500 74.000 542.600 V 545.500 C 74.000 545.555 74.045 545.600 74.100 545.600 H 80.100 C 80.155 545.600 80.200 545.555 80.200 545.500 V 542.600 C 80.200 542.500 80.100 542.600 80.200 542.600 H 86.000 C 86.100 542.600 86.000 542.500 86.000 542.600 V 545.500 C 86.000 545.555 86.045 545.600 86.100 545.600 H 92.100 C 92.155 545.600 92.200 545.555 92.200 545.500 V 542.600 C 92.200 542.500 92.100 542.600 92.200 542.600 H 98.000 C 98.100 542.600 98.000 542.500 98.000 542.600 V 545.500 C 98.000 545.555 98.045 545.600 98.100 545.600 H 104.100 C 104.155 545.600 104.200 545.555 104.200 545.500 V 542.600 C 104.200 542.500 104.100 542.600 104.200 542.600 H 110.000 C 110.100 542.600 110.000 542.500 110.000 542.600 V 545.500 C 110.000 545.555 110.045 545.600 110.100 545.600 H 116.100 C 116.155 545.600 116.200 545.555 116.200 545.500 V 542.600 C 116.200 542.500 116.100 542.600 116.200 542.600 H 122.000 C 122.100 542.600 122.000 542.500 122.000 542.600 V 545.500 C 122.000 545.555 122.045 545.600 122.100 545.600 H 128.100 C 128.155 545.600 128.200 545.555 128.200 545.500 V 542.600 C 128.200 542.500 128.100 542.600 128.200 542.600 H 134.000 C 134.100 542.600 134.000 542.500 134.000 542.600 V 545.500 C 134.000 545.555 134.045 545.600 134.100 545.600 H 140.100 C 140.155 545.600 140.200 545.555 140.200 545.500 V 542.600 C 140.200 542.500 140.100 542.600 140.200 542.600 H 147.100 C 152.384 542.600 157.574 541.209 162.150 538.567 C 166.726 535.926 170.526 532.126 173.167 527.550 C 175.809 522.974 177.200 517.784 177.200 512.500 V 502.100 C 177.200 502.000 177.100 502.100 177.200 502.100 H 180.100 C 180.155 502.100 180.200 502.055 180.200 502.000 V 496.000 C 180.200 495.945 180.155 495.900 180.100 495.900 H 177.200 C 177.100 495.900 177.200 496.000 177.200 495.900 V 490.100 C 177.200 490.000 177.100 490.100 177.200 490.100 H 180.100 C 180.155 490.100 180.200 490.055 180.200 490.000 V 484.000 C 180.200 483.945 180.155 483.900 180.100 483.900 H 177.200 C 177.100 483.900 177.200 484.000 177.200 483.900 V 478.100 C 177.200 478.000 177.100 478.100 177.200 478.100 H 180.100 C 180.155 478.100 180.200 478.055 180.200 478.000 V 472.000 C 180.200 471.945 180.155 471.900 180.100 471.900 H 177.200 C 177.100 471.900 177.200 472.000 177.200 471.900 V 466.100 C 177.200 466.000 177.100 466.100 177.200 466.100 H 180.100 C 180.155 466.100 180.200 466.055 180.200 466.000 V 460.000 C 180.200 459.945 180.155 459.900 180.100 459.900 H 177.200 C 177.100 459.900 177.200 460.000 177.200 459.900 V 454.100 C 177.200 454.000 177.100 454.100 177.200 454.100 H 180.100 C 180.155 454.100 180.200 454.055 180.200 454.000 V 448.000 C 180.200 447.945 180.155 447.900 180.100 447.900 H 177.200 C 177.100 447.900 177.200 448.000 177.200 447.900 V 442.100 C 177.200 442.000 177.100 442.100 177.200 442.100 H 180.100 C 180.155 442.100 180.200 442.055 180.200 442.000 V 436.000 C 180.200 435.945 180.155 435.900 180.100 435.900 H 177.200 C 177.100 435.900 177.200 436.000 177.200 435.900 V 430.100 C 177.200 430.000 177.100 430.100 177.200 430.100 H 180.100 C 180.155 430.100 180.200 430.055 180.200 430.000 V 424.000 C 180.200 423.945 180.155 423.900 180.100 423.900 H 177.200 C 177.100 423.900 177.200 424.000 177.200 423.900 V 418.100 C 177.200 418.000 177.100 418.100 177.200 418.100 H 180.100 C 180.155 418.100 180.200 418.055 180.200 418.000 V 412.000 C 180.200 411.945 180.155 411.900 180.100 411.900 H 177.200 C 177.100 411.900 177.200 412.000 177.200 411.900 V 406.100 C 177.200 406.000 177.100 406.100 177.200 406.100 H 180.100 C 180.155 406.100 180.200 406.055 180.200 406.000 V 400.000 C 180.200 399.945 180.155 399.900 180.100 399.900 H 177.200 C 177.100 399.900 177.200 400.000 177.200 399.900 V 394.100 C 177.200 394.000 177.100 394.100 177.200 394.100 H 180.100 C 180.155 394.100 180.200 394.055 180.200 394.000 V 388.000 C 180.200 387.945 180.155 387.900 180.100 387.900 H 177.200 C 177.100 387.900 177.200 388.000 177.200 387.900 V 377.500 C 177.200 377.445 177.155 377.400 177.100 377.400 H 170.200 C 170.100 377.400 170.200 377.500 170.200 377.400 V 374.500 C 170.200 374.445 170.155 374.400 170.100 374.400 H 164.100 C 164.045 374.400 164.000 374.445 164.000 374.500 V 377.400 C 164.000 377.500 164.100 377.400 164.000 377.400 H 158.200 C 158.100 377.400 158.200 377.500 158.200 377.400 V 374.500 C 158.200 374.445 158.155 374.400 158.100 374.400 H 152.100 C 152.045 374.400 152.000 374.445 152.000 374.500 V 377.400 C 152.000 377.500 152.100 377.400 152.000 377.400 H 146.200 C 146.100 377.400 146.200 377.500 146.200 377.400 V 374.500 C 146.200 374.445 146.155 374.400 146.100 374.400 H 140.100 C 140.045 374.400 140.000 374.445 140.000 374.500 V 377.400 C 140.000 377.500 140.100 377.400 140.000 377.400 H 134.200 C 134.100 377.400 134.200 377.500 134.200 377.400 V 374.500 C 134.200 374.445 134.155 374.400 134.100 374.400 H 128.100 C 128.045 374.400 128.000 374.445 128.000 374.500 V 377.400 C 128.000 377.500 128.100 377.400 128.000 377.400 H 122.200 C 122.100 377.400 122.200 377.500 122.200 377.400 V 374.500 C 122.200 374.445 122.155 374.400 122.100 374.400 H 116.100 C 116.045 374.400 116.000 374.445 116.000 374.500 V 377.400 C 116.000 377.500 116.100 377.400 116.000 377.400 H 110.200 C 110.100 377.400 110.200 377.500 110.200 377.400 V 374.500 C 110.200 374.445 110.155 374.400 110.100 374.400 H 104.100 C 104.045 374.400 104.000 374.445 104.000 374.500 V 377.400 C 104.000 377.500 104.100 377.400 104.000 377.400 H 98.200 C 98.100 377.400 98.200 377.500 98.200 377.400 V 374.500 C 98.200 374.445 98.155 374.400 98.100 374.400 H 92.100 C 92.045 374.400 92.000 374.445 92.000 374.500 V 377.400 C 92.000 377.500 92.100 377.400 92.000 377.400 H 86.200 C 86.100 377.400 86.200 377.500 86.200 377.400 V 374.500 C 86.200 374.445 86.155 374.400 86.100 374.400 H 80.100 C 80.045 374.400 80.000 374.445 80.000 374.500 V 377.400 C 80.000 377.500 80.100 377.400 80.000 377.400 H 74.200 C 74.100 377.400 74.200 377.500 74.200 377.400 V 374.500 C 74.200 374.445 74.155 374.400 74.100 374.400 H 68.100 C 68.045 374.400 68.000 374.445 68.000 374.500 V 377.400 C 68.000 377.500 68.100 377.400 68.000 377.400 H 62.200 C 62.100 377.400 62.200 377.500 62.200 377.400 V 374.500 C 62.200 374.445 62.155 374.400 62.100 374.400 H 56.100 C 56.045 374.400 56.000 374.445 56.000 374.500 V 377.400 C 56.000 377.500 56.100 377.400 56.000 377.400 H 50.200 C 50.100 377.400 50.200 377.500 50.200 377.400 V 374.500 C 50.200 374.445 50.155 374.400 50.100 374.400 H 44.100 C 44.045 374.400 44.000 374.445 44.000 374.500 V 377.400 C 44.000 377.500 44.100 377.400 44.000 377.400 H 38.200 C 38.100 377.400 38.200 377.500 38.200 377.400 V 374.500 C 38.200 374.445 38.155 374.400 38.100 374.400 H 32.100 C 32.045 374.400 32.000 374.445 32.000 374.500 V 377.400 C 32.000 377.500 32.100 377.400 32.000 377.400 H 26.200 C 26.100 377.400 26.200 377.500 26.200 377.400 V 374.500 C 26.200 374.445 26.155 374.400 26.100 374.400 H 20.100 C 20.045 374.400 20.000 374.445 20.000 374.500 V 377.400 C 20.000 377.500 20.100 377.400 20.000 377.400 H 13.100 C 13.045 377.400 13.000 377.445 13.000 377.500 V 387.900 C 13.000 388.000 13.100 387.900 13.000 387.900 H 10.100 C 10.045 387.900 10.000 387.945 10.000 388.000 V 394.000 C 10.000 394.055 10.045 394.100 10.100 394.100 H 13.000 C 13.100 394.100 13.000 394.000 13.000 394.100 V 399.900 C 13.000 400.000 13.100 399.900 13.000 399.900 H 10.100 C 10.045 399.900 10.000 399.945 10.000 400.000 V 406.000 C 10.000 406.055 10.045 406.100 10.100 406.100 H 13.000 C 13.100 406.100 13.000 406.000 13.000 406.100 V 411.900 C 13.000 412.000 13.100 411.900 13.000 411.900 H 10.100 C 10.045 411.900 10.000 411.945 10.000 412.000 V 418.000 C 10.000 418.055 10.045 418.100 10.100 418.100 H 13.000 C 13.100 418.100 13.000 418.000 13.000 418.100 V 423.900 C 13.000 424.000 13.100 423.900 13.000 423.900 H 10.100 C 10.045 423.900 10.000 423.945 10.000 424.000 V 430.000 C 10.000 430.055 10.045 430.100 10.100 430.100 H 13.000 C 13.100 430.100 13.000 430.000 13.000 430.100 V 435.900 C 13.000 436.000 13.100 435.900 13.000 435.900 H 10.100 C 10.045 435.900 10.000 435.945 10.000 436.000 V 442.000 C 10.000 442.055 10.045 442.100 10.100 442.100 H 13.000 C 13.100 442.100 13.000 442.000 13.000 442.100 V 447.900 C 13.000 448.000 13.100 447.900 13.000 447.900 H 10.100 C 10.045 447.900 10.000 447.945 10.000 448.000 V 454.000 C 10.000 454.055 10.045 454.100 10.100 454.100 H 13.000 C 13.100 454.100 13.000 454.000 13.000 454.100 V 459.900 C 13.000 460.000 13.100 459.900 13.000 459.900 H 10.100 C 10.045 459.900 10.000 459.945 10.000 460.000 V 466.000 C 10.000 466.055 10.045 466.100 10.100 466.100 H 13.000 C 13.100 466.100 13.000 466.000 13.000 466.100 V 471.900 C 13.000 472.000 13.100 471.900 13.000 471.900 H 10.100 C 10.045 471.900 10.000 471.945 10.000 472.000 V 478.000 C 10.000 478.055 10.045 478.100 10.100 478.100 H 13.000 C 13.100 478.100 13.000 478.000 13.000 478.100 V 483.900 C 13.000 484.000 13.100 483.900 13.000 483.900 H 10.100 C 10.045 483.900 10.000 483.945 10.000 484.000 V 490.000 C 10.000 490.055 10.045 490.100 10.100 490.100 H 13.000 C 13.100 490.100 13.000 490.000 13.000 490.100 V 495.900 C 13.000 496.000 13.100 495.900 13.000 495.900 H 10.100 C 10.045 495.900 10.000 495.945 10.000 496.000 V 502.000 C 10.000 502.055 10.045 502.100 10.100 502.100 H 13.000 C 13.100 502.100 13.000 502.000 13.000 502.100 V 512.500 C 13.000 517.784 14.391 522.974 17.033 527.550 C 19.674 532.126 23.474 535.926 28.050 538.567 C 32.626 541.209 37.816 542.600 43.100 542.600 Z" stroke="rgb(0,0,0)" stroke-width="0.20" />
  <text dominant-baseline="hanging" font-size="4px" style="font-family: sans-serif ; font-weight: normal; font-style: normal; fill: rgb(255,0,0)" text-anchor="middle" transform="matrix( 1.000 0.000 0.000 1.000 95.100 458.100 )">left</text>
</g>
<g id="p-2" style="fill:none;stroke-linecap:round;stroke-linejoin:round;">
  <path d="M 214.800 542.600 H 221.700 C 221.800 542.600 221.700 542.500 221.700 542.600 V 545.500 C 221.700 545.555 221.745 545.600 221.800 545.600 H 227.800 C 227.855 545.600 227.900 545.555 227.900 545.500 V 542.600 C 227.900 542.500 227.800 542.600 227.900 542.600 H 233.700 C 233.800 542.600 233.700 542.500 233.700 542.600 V 545.500 C 233.700 545.555 233.745 545.600 233.800 545.600 H 239.800 C 239.855 545.600 239.900 545.555 239.900 545.500 V 542.600 C 239.900 542.500 239.800 542.600 239.900 542.600 H 245.700 C 245.800 542.600 245.700 542.500 245.700 542.600 V 545.500 C 245.700 545.555 245.745 545.600 245.800 545.600 H 251.800 C 251.855 545.600 251.900 545.555 251.900 545.500 V 542.600 C 251.900 542.500 251.800 542.600 251.900 542.600 H 257.700 C 257.800 542.600 257.700 542.500 257.700 542.600 V 545.500 C 257.700 545.555 257.745 545.600 257.800 545.600 H 263.800 C 263.855 545.600 263.900 545.555 263.900 545.500 V 542.600 C 263.900 542.500 263.800 542.600 263.900 542.600 H 269.700 C 269.800 542.600 269.700 542.500 269.700 542.600 V 545.500 C 269.700 545.555 269.745 545.600 269.800 545.600 H 275.800 C 275.855 545.600 275.900 545.555 275.900 545.500 V 542.600 C 275.900 542.500 275.800 542.600 275.900 542.600 H 281.700 C 281.800 542.600 281.700 542.500 281.700 542.600 V 545.500 C 281.700 545.555 281.745 545.600 281.800 545.600 H 287.800 C 287.855 545.600 287.900 545.555 287.900 545.500 V 542.600 C 287.900 542.500 287.800 542.600 287.900 542.600 H 293.700 C 293.800 542.600 293.700 542.500 293.700 542.600 V 545.500 C 293.700 545.555 293.745 545.600 293.800 545.600 H 299.800 C 299.855 545.600 299.900 545.555 299.900 545.500 V 542.600 C 299.900 542.500 299.800 542.600 299.900 542.600 H 305.700 C 305.800 542.600 305.700 542.500 305.700 542.600 V 545.500 C 305.700 545.555 305.745 545.600 305.800 545.600 H 311.800 C 311.855 545.600 311.900 545.555 311.900 545.500 V 542.600 C 311.900 542.500 311.800 542.600 311.900 542.600 H 318.800 C 324.084 542.600 329.274 541.209 333.850 538.567 C 338.426 535.926 342.226 532.126 344.867 527.550 C 347.509 522.974 348.900 517.784 348.900 512.500 V 502.100 C 348.900 502.000 348.800 502.100 348.900 502.100 H 351.800 C 351.855 502.100 351.900 502.055 351.900 502.000 V 496.000 C 351.900 495.945 351.855 495.900 351.800 495.900 H 348.900 C 348.800 495.900 348.900 496.000 348.900 495.900 V 490.100 C 348.900 490.000 348.800 490.100 348.900 490.100 H 351.800 C 351.855 490.100 351.900 490.055 351.900 490.000 V 484.000 C 351.900 483.945 351.855 483.900 351.800 483.900 H 348.900 C 348.800 483.900 348.900 484.000 348.900 483.900 V 478.100 C 348.900 478.000 348.800 478.100 348.900 478.100 H 351.800 C 351.855 478.100 351.900 478.055 351.900 478.000 V 472.000 C 351.900 471.945 351.855 471.900 351.800 471.900 H 348.900 C 348.800 471.900 348.900 472.000 348.900 471.900 V 466.100 C 348.900 466.000 348.800 466.100 348.900 466.100 H 351.800 C 351.855 466.100 351.900 466.055 351.900 466.000 V 460.000 C 351.900 459.945 351.855 459.900 351.800 459.900 H 348.900 C 348.800 459.900 348.900 460.000 348.900 459.900 V 454.100 C 348.900 454.000 348.800 454.100 348.900 454.100 H 351.800 C 351.855 454.100 351.900 454.055 351.900 454.000 V 448.000 C 351.900 447.945 351.855 447.900 351.800 447.900 H 348.900 C 348.800 447.900 348.900 448.000 348.900 447.900 V 442.100 C 348.900 442.000 348.800 442.100 348.900 442.100 H 351.800 C 351.855 442.100 351.900 442.055 351.900 442.000 V 436.000 C 351.900 435.945 351.855 435.900 351.800 435.900 H 348.900 C 348.800 435.900 348.900 436.000 348.900 435.900 V 430.100 C 348.900 430.000 348.800 430.100 348.900 430.100 H 351.800 C 351.855 430.100 351.900 430.055 351.900 430.000 V 424.000 C 351.900 423.945 351.855 423.900 351.800 423.900 H 348.900 C 348.800 423.900 348.900 424.000 348.900 423.900 V 418.100 C 348.900 418.000 348.800 418.100 348.900 418.100 H 351.800 C 351.855 418.100 351.900 418.055 351.900 418.000 V 412.000 C 351.900 411.945 351.855 411.900 351.800 411.900 H 348.900 C 348.800 411.900 348.900 412.000 348.900 411.900 V 406.100 C 348.900 406.000 348.800 406.100 348.900 406.100 H 351.800 C 351.855 406.100 351.900 406.055 351.900 406.000 V 400.000 C 351.900 399.945 351.855 399.900 351.800 399.900 H 348.900 C 348.800 399.900 348.900 400.000 348.900 399.900 V 394.100 C 348.900 394.000 348.800 394.100 348.900 394.100 H 351.800 C 351.855 394.100 351.900 394.055 351.900 394.000 V 388.000 C 351.900 387.945 351.855 387.900 351.800 387.900 H 348.900 C 348.800 387.900 348.900 388.000 348.900 387.900 V 377.500 C 348.900 377.445 348.855 377.400 348.800 377.400 H 341.900 C 341.800 377.400 341.900 377.500 341.900 377.400 V 374.500 C 341.900 374.445 341.855 374.400 341.800 374.400 H 335.800 C 335.745 374.400 335.700 374.445 335.700 374.500 V 377.400 C 335.700 377.500 335.800 377.400 335.700 377.400 H 329.900 C 329.800 377.400 329.900 377.500 329.900 377.400 V 374.500 C 329.900 374.445 329.855 374.400 329.800 374.400 H 323.800 C 323.745 374.400 323.700 374.445 323.700 374.500 V 377.400 C 323.700 377.500 323.800 377.400 323.700 377.400 H 317.900 C 317.800 377.400 317.900 377.500 317.900 377.400 V 374.500 C 317.900 374.445 317.855 374.400 317.800 374.400 H 311.800 C 311.745 374.400 311.700 374.445 311.700 374.500 V 377.400 C 311.700 377.500 311.800 377.400 311.700 377.400 H 305.900 C 305.800 377.400 305.900 377.500 305.900 377.400 V 374.500 C 305.900 374.445 305.855 374.400 305.800 374.400 H 299.800 C 299.745 374.400 299.700 374.445 299.700 374.500 V 377.400 C 299.700 377.500 299.800 377.400 299.700 377.400 H 293.900 C 293.800 377.400 293.900 377.500 293.900 377.400 V 374.500 C 293.900 374.445 293.855 374.400 293.800 374.400 H 287.800 C 287.745 374.400 287.700 374.445 287.700 374.500 V 377.400 C 287.700 377.500 287.800 377.400 287.700 377.400 H 281.900 C 281.800 377.400 281.900 377.500 281.900 377.400 V 374.500 C 281.900 374.445 281.855 374.400 281.800 374.400 H 275.800 C 275.745 374.400 275.700 374.445 275.700 374.500 V 377.400 C 275.700 377.500 275.800 377.400 275.700 377.400 H 269.900 C 269.800 377.400 269.900 377.500 269.900 377.400 V 374.500 C 269.900 374.445 269.855 374.400 269.800 374.400 H 263.800 C 263.745 374.400 263.700 374.445 263.700 374.500 V 377.400 C 263.700 377.500 263.800 377.400 263.700 377.400 H 257.900 C 257.800 377.400 257.900 377.500 257.900 377.400 V 374.500 C 257.900 374.445 257.855 374.400 257.800 374.400 H 251.800 C 251.745 374.400 251.700 374.445 251.700 374.500 V 377.400 C 251.700 377.500 251.800 377.400 251.700 377.400 H 245.900 C 245.800 377.400 245.900 377.500 245.900 377.400 V 374.500 C 245.900 374.445 245.855 374.400 245.800 374.400 H 239.800 C 239.745 374.400 239.700 374.445 239.700 374.500 V 377.400 C 239.700 377.500 239.800 377.400 239.700 377.400 H 233.900 C 233.800 377.400 233.900 377.500 233.900 377.400 V 374.500 C 233.900 374.445 233.855 374.400 233.800 374.400 H 227.800 C 227.745 374.400 227.700 374.445 227.700 374.500 V 377.400 C 227.700 377.500 227.800 377.400 227.700 377.400 H 221.900 C 221.800 377.400 221.900 377.500 221.900 377.400 V 374.500 C 221.900 374.445 221.855 374.400 221.800 374.400 H 215.800 C 215.745 374.400 215.700 374.445 215.700 374.500 V 377.400 C 215.700 377.500 215.800 377.400 215.700 377.400 H 209.900 C 209.800 377.400 209.900 377.500 209.900 377.400 V 374.500 C 209.900 374.445 209.855 374.400 209.800 374.400 H 203.800 C 203.745 374.400 203.700 374.445 203.700 374.500 V 377.400 C 203.700 377.500 203.800 377.400 203.700 377.400 H 197.900 C 197.800 377.400 197.900 377.500 197.900 377.400 V 374.500 C 197.900 374.445 197.855 374.400 197.800 374.400 H 191.800 C 191.745 374.400 191.700 374.445 191.700 374.500 V 377.400 C 191.700 377.500 191.800 377.400 191.700 377.400 H 184.800 C 184.745 377.400 184.700 377.445 184.700 377.500 V 387.900 C 184.700 388.000 184.800 387.900 184.700 387.900 H 181.800 C 181.745 387.900 181.700 387.945 181.700 388.000 V 394.000 C 181.700 394.055 181.745 394.100 181.800 394.100 H 184.700 C 184.800 394.100 184.700 394.000 184.700 394.100 V 399.900 C 184.700 400.000 184.800 399.900 184.700 399.900 H 181.800 C 181.745 399.900 181.700 399.945 181.700 400.000 V 406.000 C 181.700 406.055 181.745 406.100 181.800 406.100 H 184.700 C 184.800 406.100 184.700 406.000 184.700 406.100 V 411.900 C 184.700 412.000 184.800 411.900 184.700 411.900 H 181.800 C 181.745 411.900 181.700 411.945 181.700 412.000 V 418.000 C 181.700 418.055 181.745 418.100 181.800 418.100 H 184.700 C 184.800 418.100 184.700 418.000 184.700 418.100 V 423.900 C 184.700 424.000 184.800 423.900 184.700 423.900 H 181.800 C 181.745 423.900 181.700 423.945 181.700 424.000 V 430.000 C 181.700 430.055 181.745 430.100 181.800 430.100 H 184.700 C 184.800 430.100 184.700 430.000 184.700 430.100 V 435.900 C 184.700 436.000 184.800 435.900 184.700 435.900 H 181.800 C 181.745 435.900 181.700 435.945 181.700 436.000 V 442.000 C 181.700 442.055 181.745 442.100 181.800 442.100 H 184.700 C 184.800 442.100 184.700 442.000 184.700 442.100 V 447.900 C 184.700 448.000 184.800 447.900 184.700 447.900 H 181.800 C 181.745 447.900 181.700 447.945 181.700 448.000 V 454.000 C 181.700 454.055 181.745 454.100 181.800 454.100 H 184.700 C 184.800 454.100 184.700 454.000 184.700 454.100 V 459.900 C 184.700 460.000 184.800 459.900 184.700 459.900 H 181.800 C 181.745 459.900 181.700 459.945 181.700 460.000 V 466.000 C 181.700 466.055 181.745 466.100 181.800 466.100 H 184.700 C 184.800 466.100 184.700 466.000 184.700 466.100 V 471.900 C 184.700 472.000 184.800 471.900 184.700 471.900 H 181.800 C 181.745 471.900 181.700 471.945 181.700 472.000 V 478.000 C 181.700 478.055 181.745 478.100 181.800 478.100 H 184.700 C 184.800 478.100 184.700 478.000 184.700 478.100 V 483.900 C 184.700 484.000 184.800 483.900 184.700 483.900 H 181.800 C 181.745 483.900 181.700 483.945 181.700 484.000 V 490.000 C 181.700 490.055 181.745 490.100 181.800 490.100 H 184.700 C 184.800 490.100 184.700 490.000 184.700 490.100 V 495.900 C 184.700 496.000 184.800 495.900 184.700 495.900 H 181.800 C 181.745 495.900 181.700 495.945 181.700 496.000 V 502.000 C 181.700 502.055 181.745 502.100 181.800 502.100 H 184.700 C 184.800 502.100 184.700 502.000 184.700 502.100 V 512.500 C 184.700 517.784 186.091 522.974 188.733 527.550 C 191.374 532.126 195.174 535.926 199.750 538.567 C 204.326 541.209 209.516 542.600 214.800 542.600 Z" stroke="rgb(0,0,0)" stroke-width="0.20" />
  <text dominant-baseline="hanging" font-size="4px" style="font-family: sans-serif ; font-weight: normal; font-style: normal; fill: rgb(255,0,0)" text-anchor="middle" transform="matrix( 1.000 0.000 0.000 1.000 266.800 458.100 )">right</text>
</g>
<g id="p-3" style="fill:none;stroke-linecap:round;stroke-linejoin:round;">
  <path d="M 13.100 372.900 H 23.600 C 23.655 372.900 23.700 372.855 23.700 372.800 V 369.900 C 23.700 369.800 23.600 369.900 23.700 369.900 H 29.500 C 29.600 369.900 29.500 369.800 29.500 369.900 V 372.800 C 29.500 372.855 29.545 372.900 29.600 372.900 H 35.600 C 35.655 372.900 35.700 372.855 35.700 372.800 V 369.900 C 35.700 369.800 35.600 369.900 35.700 369.900 H 41.500 C 41.600 369.900 41.500 369.800 41.500 369.900 V 372.800 C 41.500 372.855 41.545 372.900 41.600 372.900 H 47.600 C 47.655 372.900 47.700 372.855 47.700 372.800 V 369.900 C 47.700 369.800 47.600 369.900 47.700 369.900 H 53.500 C 53.600 369.900 53.500 369.800 53.500 369.900 V 372.800 C 53.500 372.855 53.545 372.900 53.600 372.900 H 59.600 C 59.655 372.900 59.700 372.855 59.700 372.800 V 369.900 C 59.700 369.800 59.600 369.900 59.700 369.900 H 65.500 C 65.600 369.900 65.500 369.800 65.500 369.900 V 372.800 C 65.500 372.855 65.545 372.900 65.600 372.900 H 71.600 C 71.655 372.900 71.700 372.855 71.700 372.800 V 369.900 C 71.700 369.800 71.600 369.900 71.700 369.900 H 77.500 C 77.600 369.900 77.500 369.800 77.500 369.900 V 372.800 C 77.500 372.855 77.545 372.900 77.600 372.900 H 83.600 C 83.655 372.900 83.700 372.855 83.700 372.800 V 369.900 C 83.700 369.800 83.600 369.900 83.700 369.900 H 89.500 C 89.600 369.900 89.500 369.800 89.500 369.900 V 372.800 C 89.500 372.855 89.545 372.900 89.600 372.900 H 95.600 C 95.655 372.900 95.700 372.855 95.700 372.800 V 369.900 C 95.700 369.800 95.600 369.900 95.700 369.900 H 101.500 C 101.600 369.900 101.500 369.800 101.500 369.900 V 372.800 C 101.500 372.855 101.545 372.900 101.600 372.900 H 107.600 C 107.655 372.900 107.700 372.855 107.700 372.800 V 369.900 C 107.700 369.800 107.600 369.900 107.700 369.900 H 113.500 C 113.600 369.900 113.500 369.800 113.500 369.900 V 372.800 C 113.500 372.855 113.545 372.900 113.600 372.900 H 119.600 C 119.655 372.900 119.700 372.855 119.700 372.800 V 369.900 C 119.700 369.800 119.600 369.900 119.700 369.900 H 125.500 C 125.600 369.900 125.500 369.800 125.500 369.900 V 372.800 C 125.500 372.855 125.545 372.900 125.600 372.900 H 131.600 C 131.655 372.900 131.700 372.855 131.700 372.800 V 369.900 C 131.700 369.800 131.600 369.900 131.700 369.900 H 137.500 C 137.600 369.900 137.500 369.800 137.500 369.900 V 372.800 C 137.500 372.855 137.545 372.900 137.600 372.900 H 148.100 H 195.224 H 202.224 C 202.279 372.900 202.324 372.855 202.324 372.800 V 369.900 C 202.324 369.800 202.224 369.900 202.324 369.900 H 208.124 C 208.224 369.900 208.124 369.800 208.124 369.900 V 372.800 C 208.124 372.855 208.169 372.900 208.224 372.900 H 214.224 C 214.279 372.900 214.324 372.855 214.324 372.800 V 369.900 C 214.324 369.800 214.224 369.900 214.324 369.900 H 220.124 C 220.224 369.900 220.124 369.800 220.124 369.900 V 372.800 C 220.124 372.855 220.169 372.900 220.224 372.900 H 226.224 C 226.279 372.900 226.324 372.855 226.324 372.800 V 369.900 C 226.324 369.800 226.224 369.900 226.324 369.900 H 232.124 C 232.224 369.900 232.124 369.800 232.124 369.900 V 372.800 C 232.124 372.855 232.169 372.900 232.224 372.900 H 238.224 C 238.279 372.900 238.324 372.855 238.324 372.800 V 369.900 C 238.324 369.800 238.224 369.900 238.324 369.900 H 244.124 C 244.224 369.900 244.124 369.800 244.124 369.900 V 372.800 C 244.124 372.855 244.169 372.900 244.224 372.900 H 250.224 C 250.279 372.900 250.324 372.855 250.324 372.800 V 369.900 C 250.324 369.800 250.224 369.900 250.324 369.900 H 256.124 C 256.224 369.900 256.124 369.800 256.124 369.900 V 372.800 C 256.124 372.855 256.169 372.900 256.224 372.900 H 262.224 C 262.279 372.900 262.324 372.855 262.324 372.800 V 369.900 C 262.324 369.800 262.224 369.900 262.324 369.900 H 268.124 C 268.224 369.900 268.124 369.800 268.124 369.900 V 372.800 C 268.124 372.855 268.169 372.900 268.224 372.900 H 274.224 C 274.279 372.900 274.324 372.855 274.324 372.800 V 369.900 C 274.324 369.800 274.224 369.900 274.324 369.900 H 280.124 C 280.224 369.900 280.124 369.800 280.124 369.900 V 372.800 C 280.124 372.855 280.169 372.900 280.224 372.900 H 286.224 C 286.279 372.900 286.324 372.855 286.324 372.800 V 369.900 C 286.324 369.800 286.224 369.900 286.324 369.900 H 292.124 C 292.224 369.900 292.124 369.800 292.124 369.900 V 372.800 C 292.124 372.855 292.169 372.900 292.224 372.900 H 299.224 H 346.348 H 356.848 C 356.903 372.900 356.948 372.855 356.948 372.800 V 369.900 C 356.948 369.800 356.848 369.900 356.948 369.900 H 362.748 C 362.848 369.900 362.748 369.800 362.748 369.900 V 372.800 C 362.748 372.855 362.793 372.900 362.848 372.900 H 368.848 C 368.903 372.900 368.948 372.855 368.948 372.800 V 369.900 C 368.948 369.800 368.848 369.900 368.948 369.900 H 374.748 C 374.848 369.900 374.748 369.800 374.748 369.900 V 372.800 C 374.748 372.855 374.793 372.900 374.848 372.900 H 380.848 C 380.903 372.900 380.948 372.855 380.948 372.800 V 369.900 C 380.948 369.800 380.848 369.900 380.948 369.900 H 386.748 C 386.848 369.900 386.748 369.800 386.748 369.900 V 372.800 C 386.748 372.855 386.793 372.900 386.848 372.900 H 392.848 C 392.903 372.900 392.948 372.855 392.948 372.800 V 369.900 C 392.948 369.800 392.848 369.900 392.948 369.900 H 398.748 C 398.848 369.900 398.748 369.800 398.748 369.900 V 372.800 C 398.748 372.855 398.793 372.900 398.848 372.900 H 404.848 C 404.903 372.900 404.948 372.855 404.948 372.800 V 369.900 C 404.948 369.800 404.848 369.900 404.948 369.900 H 410.748 C 410.848 369.900 410.748 369.800 410.748 369.900 V 372.800 C 410.748 372.855 410.793 372.900 410.848 372.900 H 416.848 C 416.903 372.900 416.948 372.855 416.948 372.800 V 369.900 C 416.948 369.800 416.848 369.900 416.948 369.900 H 422.748 C 422.848 369.900 422.748 369.800 422.748 369.900 V 372.800 C 422.748 372.855 422.793 372.900 422.848 372.900 H 428.848 C 428.903 372.900 428.948 372.855 428.948 372.800 V 369.900 C 428.948 369.800 428.848 369.900 428.948 369.900 H 434.748 C 434.848 369.900 434.748 369.800 434.748 369.900 V 372.800 C 434.748 372.855 434.793 372.900 434.848 372.900 H 440.848 C 440.903 372.900 440.948 372.855 440.948 372.800 V 369.900 C 440.948 369.800 440.848 369.900 440.948 369.900 H 446.748 C 446.848 369.900 446.748 369.800 446.748 369.900 V 372.800 C 446.748 372.855 446.793 372.900 446.848 372.900 H 452.848 C 452.903 372.900 452.948 372.855 452.948 372.800 V 369.900 C 452.948 369.800 452.848 369.900 452.948 369.900 H 458.748 C 458.848 369.900 458.748 369.800 458.748 369.900 V 372.800 C 458.748 372.855 458.793 372.900 458.848 372.900 H 464.848 C 464.903 372.900 464.948 372.855 464.948 372.800 V 369.900 C 464.948 369.800 464.848 369.900 464.948 369.900 H 470.748 C 470.848 369.900 470.748 369.800 470.748 369.900 V 372.800 C 470.748 372.855 470.793 372.900 470.848 372.900 H 481.348 C 481.403 372.900 481.448 372.855 481.448 372.800 V 369.800 V 358.400 C 481.448 358.300 481.348 358.400 481.448 358.400 H 484.348 C 484.403 358.400 484.448 358.355 484.448 358.300 V 352.300 C 484.448 352.245 484.403 352.200 484.348 352.200 H 481.448 C 481.348 352.200 481.448 352.300 481.448 352.200 V 346.400 C 481.448 346.300 481.348 346.400 481.448 346.400 H 484.348 C 484.403 346.400 484.448 346.355 484.448 346.300 V 340.300 C 484.448 340.245 484.403 340.200 484.348 340.200 H 481.448 C 481.348 340.200 481.448 340.300 481.448 340.200 V 334.400 C 481.448 334.300 481.348 334.400 481.448 334.400 H 484.348 C 484.403 334.400 484.448 334.355 484.448 334.300 V 328.300 C 484.448 328.245 484.403 328.200 484.348 328.200 H 481.448 C 481.348 328.200 481.448 328.300 481.448 328.200 V 322.400 C 481.448 322.300 481.348 322.400 481.448 322.400 H 484.348 C 484.403 322.400 484.448 322.355 484.448 322.300 V 316.300 C 484.448 316.245 484.403 316.200 484.348 316.200 H 481.448 C 481.348 316.200 481.448 316.300 481.448 316.200 V 310.400 C 481.448 310.300 481.348 310.400 481.448 310.400 H 484.348 C 484.403 310.400 484.448 310.355 484.448 310.300 V 304.300 C 484.448 304.245 484.403 304.200 484.348 304.200 H 481.448 C 481.348 304.200 481.448 304.300 481.448 304.200 V 298.400 C 481.448 298.300 481.348 298.400 481.448 298.400 H 484.348 C 484.403 298.400 484.448 298.355 484.448 298.300 V 292.300 C 484.448 292.245 484.403 292.200 484.348 292.200 H 481.448 C 481.348 292.200 481.448 292.300 481.448 292.200 V 286.400 C 481.448 286.300 481.348 286.400 481.448 286.400 H 484.348 C 484.403 286.400 484.448 286.355 484.448 286.300 V 280.300 C 484.448 280.245 484.403 280.200 484.348 280.200 H 481.448 C 481.348 280.200 481.448 280.300 481.448 280.200 V 274.400 C 481.448 274.300 481.348 274.400 481.448 274.400 H 484.348 C 484.403 274.400 484.448 274.355 484.448 274.300 V 268.300 C 484.448 268.245 484.403 268.200 484.348 268.200 H 481.448 C 481.348 268.200 481.448 268.300 481.448 268.200 V 262.400 C 481.448 262.300 481.348 262.400 481.448 262.400 H 484.348 C 484.403 262.400 484.448 262.355 484.448 262.300 V 256.300 C 484.448 256.245 484.403 256.200 484.348 256.200 H 481.448 C 481.348 256.200 481.448 256.300 481.448 256.200 V 250.400 C 481.448 250.300 481.348 250.400 481.448 250.400 H 484.348 C 484.403 250.400 484.448 250.355 484.448 250.300 V 244.300 C 484.448 244.245 484.403 244.200 484.348 244.200 H 481.448 C 481.348 244.200 481.448 244.300 481.448 244.200 V 238.400 C 481.448 238.300 481.348 238.400 481.448 238.400 H 484.348 C 484.403 238.400 484.448 238.355 484.448 238.300 V 232.300 C 484.448 232.245 484.403 232.200 484.348 232.200 H 481.448 C 481.348 232.200 481.448 232.300 481.448 232.200 V 226.400 C 481.448 226.300 481.348 226.400 481.448 226.400 H 484.348 C 484.403 226.400 484.448 226.355 484.448 226.300 V 220.300 C 484.448 220.245 484.403 220.200 484.348 220.200 H 481.448 C 481.348 220.200 481.448 220.300 481.448 220.200 V 214.400 C 481.448 214.300 481.348 214.400 481.448 214.400 H 484.348 C 484.403 214.400 484.448 214.355 484.448 214.300 V 208.300 C 484.448 208.245 484.403 208.200 484.348 208.200 H 481.448 C 481.348 208.200 481.448 208.300 481.448 208.200 V 202.400 C 481.448 202.300 481.348 202.400 481.448 202.400 H 484.348 C 484.403 202.400 484.448 202.355 484.448 202.300 V 196.300 C 484.448 196.245 484.403 196.200 484.348 196.200 H 481.448 C 481.348 196.200 481.448 196.300 481.448 196.200 V 184.800 V 181.800 C 481.448 181.745 481.403 181.700 481.348 181.700 H 470.848 C 470.793 181.700 470.748 181.745 470.748 181.800 V 184.700 C 470.748 184.800 470.848 184.700 470.748 184.700 H 464.948 C 464.848 184.700 464.948 184.800 464.948 184.700 V 181.800 C 464.948 181.745 464.903 181.700 464.848 181.700 H 458.848 C 458.793 181.700 458.748 181.745 458.748 181.800 V 184.700 C 458.748 184.800 458.848 184.700 458.748 184.700 H 452.948 C 452.848 184.700 452.948 184.800 452.948 184.700 V 181.800 C 452.948 181.745 452.903 181.700 452.848 181.700 H 446.848 C 446.793 181.700 446.748 181.745 446.748 181.800 V 184.700 C 446.748 184.800 446.848 184.700 446.748 184.700 H 440.948 C 440.848 184.700 440.948 184.800 440.948 184.700 V 181.800 C 440.948 181.745 440.903 181.700 440.848 181.700 H 434.848 C 434.793 181.700 434.748 181.745 434.748 181.800 V 184.700 C 434.748 184.800 434.848 184.700 434.748 184.700 H 428.948 C 428.848 184.700 428.948 184.800 428.948 184.700 V 181.800 C 428.948 181.745 428.903 181.700 428.848 181.700 H 422.848 C 422.793 181.700 422.748 181.745 422.748 181.800 V 184.700 C 422.748 184.800 422.848 184.700 422.748 184.700 H 416.948 C 416.848 184.700 416.948 184.800 416.948 184.700 V 181.800 C 416.948 181.745 416.903 181.700 416.848 181.700 H 410.848 C 410.793 181.700 410.748 181.745 410.748 181.800 V 184.700 C 410.748 184.800 410.848 184.700 410.748 184.700 H 404.948 C 404.848 184.700 404.948 184.800 404.948 184.700 V 181.800 C 404.948 181.745 404.903 181.700 404.848 181.700 H 398.848 C 398.793 181.700 398.748 181.745 398.748 181.800 V 184.700 C 398.748 184.800 398.848 184.700 398.748 184.700 H 392.948 C 392.848 184.700 392.948 184.800 392.948 184.700 V 181.800 C 392.948 181.745 392.903 181.700 392.848 181.700 H 386.848 C 386.793 181.700 386.748 181.745 386.748 181.800 V 184.700 C 386.748 184.800 386.848 184.700 386.748 184.700 H 380.948 C 380.848 184.700 380.948 184.800 380.948 184.700 V 181.800 C 380.948 181.745 380.903 181.700 380.848 181.700 H 374.848 C 374.793 181.700 374.748 181.745 374.748 181.800 V 184.700 C 374.748 184.800 374.848 184.700 374.748 184.700 H 368.948 C 368.848 184.700 368.948 184.800 368.948 184.700 V 181.800 C 368.948 181.745 368.903 181.700 368.848 181.700 H 362.848 C 362.793 181.700 362.748 181.745 362.748 181.800 V 184.700 C 362.748 184.800 362.848 184.700 362.748 184.700 H 356.948 C 356.848 184.700 356.948 184.800 356.948 184.700 V 181.800 C 356.948 181.745 356.903 181.700 356.848 181.700 H 346.348 H 299.224 H 292.224 C 292.169 181.700 292.124 181.745 292.124 181.800 V 184.700 C 292.124 184.800 292.224 184.700 292.124 184.700 H 286.324 C 286.224 184.700 286.324 184.800 286.324 184.700 V 181.800 C 286.324 181.745 286.279 181.700 286.224 181.700 H 280.224 C 280.169 181.700 280.124 181.745 280.124 181.800 V 184.700 C 280.124 184.800 280.224 184.700 280.124 184.700 H 274.324 C 274.224 184.700 274.324 184.800 274.324 184.700 V 181.800 C 274.324 181.745 274.279 181.700 274.224 181.700 H 268.224 C 268.169 181.700 268.124 181.745 268.124 181.800 V 184.700 C 268.124 184.800 268.224 184.700 268.124 184.700 H 262.324 C 262.224 184.700 262.324 184.800 262.324 184.700 V 181.800 C 262.324 181.745 262.279 181.700 262.224 181.700 H 256.224 C 256.169 181.700 256.124 181.745 256.124 181.800 V 184.700 C 256.124 184.800 256.224 184.700 256.124 184.700 H 250.324 C 250.224 184.700 250.324 184.800 250.324 184.700 V 181.800 C 250.324 181.745 250.279 181.700 250.224 181.700 H 244.224 C 244.169 181.700 244.124 181.745 244.124 181.800 V 184.700 C 244.124 184.800 244.224 184.700 244.124 184.700 H 238.324 C 238.224 184.700 238.324 184.800 238.324 184.700 V 181.800 C 238.324 181.745 238.279 181.700 238.224 181.700 H 232.224 C 232.169 181.700 232.124 181.745 232.124 181.800 V 184.700 C 232.124 184.800 232.224 184.700 232.124 184.700 H 226.324 C 226.224 184.700 226.324 184.800 226.324 184.700 V 181.800 C 226.324 181.745 226.279 181.700 226.224 181.700 H 220.224 C 220.169 181.700 220.124 181.745 220.124 181.800 V 184.700 C 220.124 184.800 220.224 184.700 220.124 184.700 H 214.324 C 214.224 184.700 214.324 184.800 214.324 184.700 V 181.800 C 214.324 181.745 214.279 181.700 214.224 181.700 H 208.224 C 208.169 181.700 208.124 181.745 208.124 181.800 V 184.700 C 208.124 184.800 208.224 184.700 208.124 184.700 H 202.324 C 202.224 184.700 202.324 184.800 202.324 184.700 V 181.800 C 202.324 181.745 202.279 181.700 202.224 181.700 H 195.224 H 148.100 H 137.600 C 137.545 181.700 137.500 181.745 137.500 181.800 V 184.700 C 137.500 184.800 137.600 184.700 137.500 184.700 H 131.700 C 131.600 184.700 131.700 184.800 131.700 184.700 V 181.800 C 131.700 181.745 131.655 181.700 131.600 181.700 H 125.600 C 125.545 181.700 125.500 181.745 125.500 181.800 V 184.700 C 125.500 184.800 125.600 184.700 125.500 184.700 H 119.700 C 119.600 184.700 119.700 184.800 119.700 184.700 V 181.800 C 119.700 181.745 119.655 181.700 119.600 181.700 H 113.600 C 113.545 181.700 113.500 181.745 113.500 181.800 V 184.700 C 113.500 184.800 113.600 184.700 113.500 184.700 H 107.700 C 107.600 184.700 107.700 184.800 107.700 184.700 V 181.800 C 107.700 181.745 107.655 181.700 107.600 181.700 H 101.600 C 101.545 181.700 101.500 181.745 101.500 181.800 V 184.700 C 101.500 184.800 101.600 184.700 101.500 184.700 H 95.700 C 95.600 184.700 95.700 184.800 95.700 184.700 V 181.800 C 95.700 181.745 95.655 181.700 95.600 181.700 H 89.600 C 89.545 181.700 89.500 181.745 89.500 181.800 V 184.700 C 89.500 184.800 89.600 184.700 89.500 184.700 H 83.700 C 83.600 184.700 83.700 184.800 83.700 184.700 V 181.800 C 83.700 181.745 83.655 181.700 83.600 181.700 H 77.600 C 77.545 181.700 77.500 181.745 77.500 181.800 V 184.700 C 77.500 184.800 77.600 184.700 77.500 184.700 H 71.700 C 71.600 184.700 71.700 184.800 71.700 184.700 V 181.800 C 71.700 181.745 71.655 181.700 71.600 181.700 H 65.600 C 65.545 181.700 65.500 181.745 65.500 181.800 V 184.700 C 65.500 184.800 65.600 184.700 65.500 184.700 H 59.700 C 59.600 184.700 59.700 184.800 59.700 184.700 V 181.800 C 59.700 181.745 59.655 181.700 59.600 181.700 H 53.600 C 53.545 181.700 53.500 181.745 53.500 181.800 V 184.700 C 53.500 184.800 53.600 184.700 53.500 184.700 H 47.700 C 47.600 184.700 47.700 184.800 47.700 184.700 V 181.800 C 47.700 181.745 47.655 181.700 47.600 181.700 H 41.600 C 41.545 181.700 41.500 181.745 41.500 181.800 V 184.700 C 41.500 184.800 41.600 184.700 41.500 184.700 H 35.700 C 35.600 184.700 35.700 184.800 35.700 184.700 V 181.800 C 35.700 181.745 35.655 181.700 35.600 181.700 H 29.600 C 29.545 181.700 29.500 181.745 29.500 181.800 V 184.700 C 29.500 184.800 29.600 184.700 29.500 184.700 H 23.700 C 23.600 184.700 23.700 184.800 23.700 184.700 V 181.800 C 23.700 181.745 23.655 181.700 23.600 181.700 H 13.100 C 13.045 181.700 13.000 181.745 13.000 181.800 V 184.800 V 196.200 C 13.000 196.300 13.100 196.200 13.000 196.200 H 10.100 C 10.045 196.200 10.000 196.245 10.000 196.300 V 202.300 C 10.000 202.355 10.045 202.400 10.100 202.400 H 13.000 C 13.100 202.400 13.000 202.300 13.000 202.400 V 208.200 C 13.000 208.300 13.100 208.200 13.000 208.200 H 10.100 C 10.045 208.200 10.000 208.245 10.000 208.300 V 214.300 C 10.000 214.355 10.045 214.400 10.100 214.400 H 13.000 C 13.100 214.400 13.000 214.300 13.000 214.400 V 220.200 C 13.000 220.300 13.100 220.200 13.000 220.200 H 10.100 C 10.045 220.200 10.000 220.245 10.000 220.300 V 226.300 C 10.000 226.355 10.045 226.400 10.100 226.400 H 13.000 C 13.100 226.400 13.000 226.300 13.000 226.400 V 232.200 C 13.000 232.300 13.100 232.200 13.000 232.200 H 10.100 C 10.045 232.200 10.000 232.245 10.000 232.300 V 238.300 C 10.000 238.355 10.045 238.400 10.100 238.400 H 13.000 C 13.100 238.400 13.000 238.300 13.000 238.400 V 244.200 C 13.000 244.300 13.100 244.200 13.000 244.200 H 10.100 C 10.045 244.200 10.000 244.245 10.000 244.300 V 250.300 C 10.000 250.355 10.045 250.400 10.100 250.400 H 13.000 C 13.100 250.400 13.000 250.300 13.000 250.400 V 256.200 C 13.000 256.300 13.100 256.200 13.000 256.200 H 10.100 C 10.045 256.200 10.000 256.245 10.000 256.300 V 262.300 C 10.000 262.355 10.045 262.400 10.100 262.400 H 13.000 C 13.100 262.400 13.000 262.300 13.000 262.400 V 268.200 C 13.000 268.300 13.100 268.200 13.000 268.200 H 10.100 C 10.045 268.200 10.000 268.245 10.000 268.300 V 274.300 C 10.000 274.355 10.045 274.400 10.100 274.400 H 13.000 C 13.100 274.400 13.000 274.300 13.000 274.400 V 280.200 C 13.000 280.300 13.100 280.200 13.000 280.200 H 10.100 C 10.045 280.200 10.000 280.245 10.000 280.300 V 286.300 C 10.000 286.355 10.045 286.400 10.100 286.400 H 13.000 C 13.100 286.400 13.000 286.300 13.000 286.400 V 292.200 C 13.000 292.300 13.100 292.200 13.000 292.200 H 10.100 C 10.045 292.200 10.000 292.245 10.000 292.300 V 298.300 C 10.000 298.355 10.045 298.400 10.100 298.400 H 13.000 C 13.100 298.400 13.000 298.300 13.000 298.400 V 304.200 C 13.000 304.300 13.100 304.200 13.000 304.200 H 10.100 C 10.045 304.200 10.000 304.245 10.000 304.300 V 310.300 C 10.000 310.355 10.045 310.400 10.100 310.400 H 13.000 C 13.100 310.400 13.000 310.300 13.000 310.400 V 316.200 C 13.000 316.300 13.100 316.200 13.000 316.200 H 10.100 C 10.045 316.200 10.000 316.245 10.000 316.300 V 322.300 C 10.000 322.355 10.045 322.400 10.100 322.400 H 13.000 C 13.100 322.400 13.000 322.300 13.000 322.400 V 328.200 C 13.000 328.300 13.100 328.200 13.000 328.200 H 10.100 C 10.045 328.200 10.000 328.245 10.000 328.300 V 334.300 C 10.000 334.355 10.045 334.400 10.100 334.400 H 13.000 C 13.100 334.400 13.000 334.300 13.000 334.400 V 340.200 C 13.000 340.300 13.100 340.200 13.000 340.200 H 10.100 C 10.045 340.200 10.000 340.245 10.000 340.300 V 346.300 C 10.000 346.355 10.045 346.400 10.100 346.400 H 13.000 C 13.100 346.400 13.000 346.300 13.000 346.400 V 352.200 C 13.000 352.300 13.100 352.200 13.000 352.200 H 10.100 C 10.045 352.200 10.000 352.245 10.000 352.300 V 358.300 C 10.000 358.355 10.045 358.400 10.100 358.400 H 13.000 C 13.100 358.400 13.000 358.300 13.000 358.400 V 369.800 V 372.800 C 13.000 372.855 13.045 372.900 13.100 372.900 Z" stroke="rgb(0,0,0)" stroke-width="0.20" />
  <path d="M 149.912 372.900 V 357.217 M 149.912 354.217 V 325.850 M 149.912 322.850 V 294.483 M 149.912 291.483 V 263.117 M 149.912 260.117 V 231.750 M 149.912 228.750 V 200.383 M 149.912 197.383 V 181.700 M 151.412 184.700 V 213.067 M 151.412 216.067 V 244.433 M 151.412 247.433 V 275.800 M 151.412 278.800 V 307.167 M 151.412 310.167 V 338.533 M 151.412 341.533 V 369.900 M 152.912 372.900 V 357.217 M 152.912 354.217 V 325.850 M 152.912 322.850 V 294.483 M 152.912 291.483 V 263.117 M 152.912 260.117 V 231.750 M 152.912 228.750 V 200.383 M 152.912 197.383 V 181.700 M 154.412 184.700 V 213.067 M 154.412 216.067 V 244.433 M 154.412 247.433 V 275.800 M 154.412 278.800 V 307.167 M 154.412 310.167 V 338.533 M 154.412 341.533 V 369.900 M 155.912 372.900 V 357.217 M 155.912 354.217 V 325.850 M 155.912 322.850 V 294.483 M 155.912 291.483 V 263.117 M 155.912 260.117 V 231.750 M 155.912 228.750 V 200.383 M 155.912 197.383 V 181.700 M 157.412 184.700 V 213.067 M 157.412 216.067 V 244.433 M 157.412 247.433 V 275.800 M 157.412 278.800 V 307.167 M 157.412 310.167 V 338.533 M 157.412 341.533 V 369.900 M 158.912 372.900 V 357.217 M 158.912 354.217 V 325.850 M 158.912 322.850 V 294.483 M 158.912 291.483 V 263.117 M 158.912 260.117 V 231.750 M 158.912 228.750 V 200.383 M 158.912 197.383 V 181.700 M 160.412 184.700 V 213.067 M 160.412 216.067 V 244.433 M 160.412 247.433 V 275.800 M 160.412 278.800 V 307.167 M 160.412 310.167 V 338.533 M 160.412 341.533 V 369.900 M 161.912 372.900 V 357.217 M 161.912 354.217 V 325.850 M 161.912 322.850 V 294.483 M 161.912 291.483 V 263.117 M 161.912 260.117 V 231.750 M 161.912 228.750 V 200.383 M 161.912 197.383 V 181.700 M 163.412 184.700 V 213.067 M 163.412 216.067 V 244.433 M 163.412 247.433 V 275.800 M 163.412 278.800 V 307.167 M 163.412 310.167 V 338.533 M 163.412 341.533 V 369.900 M 164.912 372.900 V 357.217 M 164.912 354.217 V 325.850 M 164.912 322.850 V 294.483 M 164.912 291.483 V 263.117 M 164.912 260.117 V 231.750 M 164.912 228.750 V 200.383 M 164.912 197.383 V 181.700 M 166.412 184.700 V 213.067 M 166.412 216.067 V 244.433 M 166.412 247.433 V 275.800 M 166.412 278.800 V 307.167 M 166.412 310.167 V 338.533 M 166.412 341.533 V 369.900 M 167.912 372.900 V 357.217 M 167.912 354.217 V 325.850 M 167.912 322.850 V 294.483 M 167.912 291.483 V 263.117 M 167.912 260.117 V 231.750 M 167.912 228.750 V 200.383 M 167.912 197.383 V 181.700 M 169.412 184.700 V 213.067 M 169.412 216.067 V 244.433 M 169.412 247.433 V 275.800 M 169.412 278.800 V 307.167 M 169.412 310.167 V 338.533 M 169.412 341.533 V 369.900 M 170.912 372.900 V 357.217 M 170.912 354.217 V 325.850 M 170.912 322.850 V 294.483 M 170.912 291.483 V 263.117 M 170.912 260.117 V 231.750 M 170.912 228.750 V 200.383 M 170.912 197.383 V 181.700 M 172.412 184.700 V 213.067 M 172.412 216.067 V 244.433 M 172.412 247.433 V 275.800 M 172.412 278.800 V 307.167 M 172.412 310.167 V 338.533 M 172.412 341.533 V 369.900 M 173.912 372.900 V 357.217 M 173.912 354.217 V 325.850 M 173.912 322.850 V 294.483 M 173.912 291.483 V 263.117 M 173.912 260.117 V 231.750 M 173.912 228.750 V 200.383 M 173.912 197.383 V 181.700 M 175.412 184.700 V 213.067 M 175.412 216.067 V 244.433 M 175.412 247.433 V 275.800 M 175.412 278.800 V 307.167 M 175.412 310.167 V 338.533 M 175.412 341.533 V 369.900 M 176.912 372.900 V 357.217 M 176.912 354.217 V 325.850 M 176.912 322.850 V 294.483 M 176.912 291.483 V 263.117 M 176.912 260.117 V 231.750 M 176.912 228.750 V 200.383 M 176.912 197.383 V 181.700 M 178.412 184.700 V 213.067 M 178.412 216.067 V 244.433 M 178.412 247.433 V 275.800 M 178.412 278.800 V 307.167 M 178.412 310.167 V 338.533 M 178.412 341.533 V 369.900 M 179.912 372.900 V 357.217 M 179.912 354.217 V 325.850 M 179.912 322.850 V 294.483 M 179.912 291.483 V 263.117 M 179.912 260.117 V 231.750 M 179.912 228.750 V 200.383 M 179.912 197.383 V 181.700 M 181.412 184.700 V 213.067 M 181.412 216.067 V 244.433 M 181.412 247.433 V 275.800 M 181.412 278.800 V 307.167 M 181.412 310.167 V 338.533 M 181.412 341.533 V 369.900 M 182.912 372.900 V 357.217 M 182.912 354.217 V 325.850 M 182.912 322.850 V 294.483 M 182.912 291.483 V 263.117 M 182.912 260.117 V 231.750 M 182.912 228.750 V 200.383 M 182.912 197.383 V 181.700 M 184.412 184.700 V 213.067 M 184.412 216.067 V 244.433 M 184.412 247.433 V 275.800 M 184.412 278.800 V 307.167 M 184.412 310.167 V 338.533 M 184.412 341.533 V 369.900 M 185.912 372.900 V 357.217 M 185.912 354.217 V 325.850 M 185.912 322.850 V 294.483 M 185.912 291.483 V 263.117 M 185.912 260.117 V 231.750 M 185.912 228.750 V 200.383 M 185.912 197.383 V 181.700 M 187.412 184.700 V 213.067 M 187.412 216.067 V 244.433 M 187.412 247.433 V 275.800 M 187.412 278.800 V 307.167 M 187.412 310.167 V 338.533 M 187.412 341.533 V 369.900 M 188.912 372.900 V 357.217 M 188.912 354.217 V 325.850 M 188.912 322.850 V 294.483 M 188.912 291.483 V 263.117 M 188.912 260.117 V 231.750 M 188.912 228.750 V 200.383 M 188.912 197.383 V 181.700 M 190.412 184.700 V 213.067 M 190.412 216.067 V 244.433 M 190.412 247.433 V 275.800 M 190.412 278.800 V 307.167 M 190.412 310.167 V 338.533 M 190.412 341.533 V 369.900 M 191.912 372.900 V 357.217 M 191.912 354.217 V 325.850 M 191.912 322.850 V 294.483 M 191.912 291.483 V 263.117 M 191.912 260.117 V 231.750 M 191.912 228.750 V 200.383 M 191.912 197.383 V 181.700 M 193.412 184.700 V 213.067 M 193.412 216.067 V 244.433 M 193.412 247.433 V 275.800 M 193.412 278.800 V 307.167 M 193.412 310.167 V 338.533 M 193.412 341.533 V 369.900" stroke="rgb(0,0,0)" stroke-width="0.20" />
  <path d="M 301.036 372.900 V 357.217 M 301.036 354.217 V 325.850 M 301.036 322.850 V 294.483 M 301.036 291.483 V 263.117 M 301.036 260.117 V 231.750 M 301.036 228.750 V 200.383 M 301.036 197.383 V 181.700 M 302.536 184.700 V 213.067 M 302.536 216.067 V 244.433 M 302.536 247.433 V 275.800 M 302.536 278.800 V 307.167 M 302.536 310.167 V 338.533 M 302.536 341.533 V 369.900 M 304.036 372.900 V 357.217 M 304.036 354.217 V 325.850 M 304.036 322.850 V 294.483 M 304.036 291.483 V 263.117 M 304.036 260.117 V 231.750 M 304.036 228.750 V 200.383 M 304.036 197.383 V 181.700 M 305.536 184.700 V 213.067 M 305.536 216.067 V 244.433 M 305.536 247.433 V 275.800 M 305.536 278.800 V 307.167 M 305.536 310.167 V 338.533 M 305.536 341.533 V 369.900 M 307.036 372.900 V 357.217 M 307.036 354.217 V 325.850 M 307.036 322.850 V 294.483 M 307.036 291.483 V 263.117 M 307.036 260.117 V 231.750 M 307.036 228.750 V 200.383 M 307.036 197.383 V 181.700 M 308.536 184.700 V 213.067 M 308.536 216.067 V 244.433 M 308.536 247.433 V 275.800 M 308.536 278.800 V 307.167 M 308.536 310.167 V 338.533 M 308.536 341.533 V 369.900 M 310.036 372.900 V 357.217 M 310.036 354.217 V 325.850 M 310.036 322.850 V 294.483 M 310.036 291.483 V 263.117 M 310.036 260.117 V 231.750 M 310.036 228.750 V 200.383 M 310.036 197.383 V 181.700 M 311.536 184.700 V 213.067 M 311.536 216.067 V 244.433 M 311.536 247.433 V 275.800 M 311.536 278.800 V 307.167 M 311.536 310.167 V 338.533 M 311.536 341.533 V 369.900 M 313.036 372.900 V 357.217 M 313.036 354.217 V 325.850 M 313.036 322.850 V 294.483 M 313.036 291.483 V 263.117 M 313.036 260.117 V 231.750 M 313.036 228.750 V 200.383 M 313.036 197.383 V 181.700 M 314.536 184.700 V 213.067 M 314.536 216.067 V 244.433 M 314.536 247.433 V 275.800 M 314.536 278.800 V 307.167 M 314.536 310.167 V 338.533 M 314.536 341.533 V 369.900 M 316.036 372.900 V 357.217 M 316.036 354.217 V 325.850 M 316.036 322.850 V 294.483 M 316.036 291.483 V 263.117 M 316.036 260.117 V 231.750 M 316.036 228.750 V 200.383 M 316.036 197.383 V 181.700 M 317.536 184.700 V 213.067 M 317.536 216.067 V 244.433 M 317.536 247.433 V 275.800 M 317.536 278.800 V 307.167 M 317.536 310.167 V 338.533 M 317.536 341.533 V 369.900 M 319.036 372.900 V 357.217 M 319.036 354.217 V 325.850 M 319.036 322.850 V 294.483 M 319.036 291.483 V 263.117 M 319.036 260.117 V 231.750 M 319.036 228.750 V 200.383 M 319.036 197.383 V 181.700 M 320.536 184.700 V 213.067 M 320.536 216.067 V 244.433 M 320.536 247.433 V 275.800 M 320.536 278.800 V 307.167 M 320.536 310.167 V 338.533 M 320.536 341.533 V 369.900 M 322.036 372.900 V 357.217 M 322.036 354.217 V 325.850 M 322.036 322.850 V 294.483 M 322.036 291.483 V 263.117 M 322.036 260.117 V 231.750 M 322.036 228.750 V 200.383 M 322.036 197.383 V 181.700 M 323.536 184.700 V 213.067 M 323.536 216.067 V 244.433 M 323.536 247.433 V 275.800 M 323.536 278.800 V 307.167 M 323.536 310.167 V 338.533 M 323.536 341.533 V 369.900 M 325.036 372.900 V 357.217 M 325.036 354.217 V 325.850 M 325.036 322.850 V 294.483 M 325.036 291.483 V 263.117 M 325.036 260.117 V 231.750 M 325.036 228.750 V 200.383 M 325.036 197.383 V 181.700 M 326.536 184.700 V 213.067 M 326.536 216.067 V 244.433 M 326.536 247.433 V 275.800 M 326.536 278.800 V 307.167 M 326.536 310.167 V 338.533 M 326.536 341.533 V 369.900 M 328.036 372.900 V 357.217 M 328.036 354.217 V 325.850 M 328.036 322.850 V 294.483 M 328.036 291.483 V 263.117 M 328.036 260.117 V 231.750 M 328.036 228.750 V 200.383 M 328.036 197.383 V 181.700 M 329.536 184.700 V 213.067 M 329.536 216.067 V 244.433 M 329.536 247.433 V 275.800 M 329.536 278.800 V 307.167 M 329.536 310.167 V 338.533 M 329.536 341.533 V 369.900 M 331.036 372.900 V 357.217 M 331.036 354.217 V 325.850 M 331.036 322.850 V 294.483 M 331.036 291.483 V 263.117 M 331.036 260.117 V 231.750 M 331.036 228.750 V 200.383 M 331.036 197.383 V 181.700 M 332.536 184.700 V 213.067 M 332.536 216.067 V 244.433 M 332.536 247.433 V 275.800 M 332.536 278.800 V 307.167 M 332.536 310.167 V 338.533 M 332.536 341.533 V 369.900 M 334.036 372.900 V 357.217 M 334.036 354.217 V 325.850 M 334.036 322.850 V 294.483 M 334.036 291.483 V 263.117 M 334.036 260.117 V 231.750 M 334.036 228.750 V 200.383 M 334.036 197.383 V 181.700 M 335.536 184.700 V 213.067 M 335.536 216.067 V 244.433 M 335.536 247.433 V 275.800 M 335.536 278.800 V 307.167 M 335.536 310.167 V 338.533 M 335.536 341.533 V 369.900 M 337.036 372.900 V 357.217 M 337.036 354.217 V 325.850 M 337.036 322.850 V 294.483 M 337.036 291.483 V 263.117 M 337.036 260.117 V 231.750 M 337.036 228.750 V 200.383 M 337.036 197.383 V 181.700 M 338.536 184.700 V 213.067 M 338.536 216.067 V 244.433 M 338.536 247.433 V 275.800 M 338.536 278.800 V 307.167 M 338.536 310.167 V 338.533 M 338.536 341.533 V 369.900 M 340.036 372.900 V 357.217 M 340.036 354.217 V 325.850 M 340.036 322.850 V 294.483 M 340.036 291.483 V 263.117 M 340.036 260.117 V 231.750 M 340.036 228.750 V 200.383 M 340.036 197.383 V 181.700 M 341.536 184.700 V 213.067 M 341.536 216.067 V 244.433 M 341.536 247.433 V 275.800 M 341.536 278.800 V 307.167 M 341.536 310.167 V 338.533 M 341.536 341.533 V 369.900 M 343.036 372.900 V 357.217 M 343.036 354.217 V 325.850 M 343.036 322.850 V 294.483 M 343.036 291.483 V 263.117 M 343.036 260.117 V 231.750 M 343.036 228.750 V 200.383 M 343.036 197.383 V 181.700 M 344.536 184.700 V 213.067 M 344.536 216.067 V 244.433 M 344.536 247.433 V 275.800 M 344.536 278.800 V 307.167 M 344.536 310.167 V 338.533 M 344.536 341.533 V 369.900" stroke="rgb(0,0,0)" stroke-width="0.20" />
  <text dominant-baseline="hanging" font-size="4px" style="font-family: sans-serif ; font-weight: normal; font-style: normal; fill: rgb(255,0,0)" text-anchor="middle" transform="matrix( 1.000 0.000 0.000 1.000 225.852 275.400 )">wall</text>
</g>
<g id="p-4" style="fill:none;stroke-linecap:round;stroke-linejoin:round;">
  <path d="M 13.100 180.200 H 24.600 C 24.655 180.200 24.700 180.155 24.700 180.100 V 177.200 C 24.700 177.100 24.600 177.200 24.700 177.200 H 30.500 C 30.600 177.200 30.500 177.100 30.500 177.200 V 180.100 C 30.500 180.155 30.545 180.200 30.600 180.200 H 36.600 C 36.655 180.200 36.700 180.155 36.700 180.100 V 177.200 C 36.700 177.100 36.600 177.200 36.700 177.200 H 42.500 C 42.600 177.200 42.500 177.100 42.500 177.200 V 180.100 C 42.500 180.155 42.545 180.200 42.600 180.200 H 48.600 C 48.655 180.200 48.700 180.155 48.700 180.100 V 177.200 C 48.700 177.100 48.600 177.200 48.700 177.200 H 54.500 C 54.600 177.200 54.500 177.100 54.500 177.200 V 180.100 C 54.500 180.155 54.545 180.200 54.600 180.200 H 60.600 C 60.655 180.200 60.700 180.155 60.700 180.100 V 177.200 C 60.700 177.100 60.600 177.200 60.700 177.200 H 66.500 C 66.600 177.200 66.500 177.100 66.500 177.200 V 180.100 C 66.500 180.155 66.545 180.200 66.600 180.200 H 72.600 C 72.655 180.200 72.700 180.155 72.700 180.100 V 177.200 C 72.700 177.100 72.600 177.200 72.700 177.200 H 78.500 C 78.600 177.200 78.500 177.100 78.500 177.200 V 180.100 C 78.500 180.155 78.545 180.200 78.600 180.200 H 84.600 C 84.655 180.200 84.700 180.155 84.700 180.100 V 177.200 C 84.700 177.100 84.600 177.200 84.700 177.200 H 90.500 C 90.600 177.200 90.500 177.100 90.500 177.200 V 180.100 C 90.500 180.155 90.545 180.200 90.600 180.200 H 96.600 C 96.655 180.200 96.700 180.155 96.700 180.100 V 177.200 C 96.700 177.100 96.600 177.200 96.700 177.200 H 102.500 C 102.600 177.200 102.500 177.100 102.500 177.200 V 180.100 C 102.500 180.155 102.545 180.200 102.600 180.200 H 108.600 C 108.655 180.200 108.700 180.155 108.700 180.100 V 177.200 C 108.700 177.100 108.600 177.200 108.700 177.200 H 114.500 C 114.600 177.200 114.500 177.100 114.500 177.200 V 180.100 C 114.500 180.155 114.545 180.200 114.600 180.200 H 120.600 C 120.655 180.200 120.700 180.155 120.700 180.100 V 177.200 C 120.700 177.100 120.600 177.200 120.700 177.200 H 126.500 C 126.600 177.200 126.500 177.100 126.500 177.200 V 180.100 C 126.500 180.155 126.545 180.200 126.600 180.200 H 132.600 C 132.655 180.200 132.700 180.155 132.700 180.100 V 177.200 C 132.700 177.100 132.600 177.200 132.700 177.200 H 138.500 C 138.600 177.200 138.500 177.100 138.500 177.200 V 180.100 C 138.500 180.155 138.545 180.200 138.600 180.200 H 144.600 C 144.655 180.200 144.700 180.155 144.700 180.100 V 177.200 C 144.700 177.100 144.600 177.200 144.700 177.200 H 150.500 C 150.600 177.200 150.500 177.100 150.500 177.200 V 180.100 C 150.500 180.155 150.545 180.200 150.600 180.200 H 156.600 C 156.655 180.200 156.700 180.155 156.700 180.100 V 177.200 C 156.700 177.100 156.600 177.200 156.700 177.200 H 162.500 C 162.600 177.200 162.500 177.100 162.500 177.200 V 180.100 C 162.500 180.155 162.545 180.200 162.600 180.200 H 168.600 C 168.655 180.200 168.700 180.155 168.700 180.100 V 177.200 C 168.700 177.100 168.600 177.200 168.700 177.200 H 174.500 C 174.600 177.200 174.500 177.100 174.500 177.200 V 180.100 C 174.500 180.155 174.545 180.200 174.600 180.200 H 180.600 C 180.655 180.200 180.700 180.155 180.700 180.100 V 177.200 C 180.700 177.100 180.600 177.200 180.700 177.200 H 186.500 C 186.600 177.200 186.500 177.100 186.500 177.200 V 180.100 C 186.500 180.155 186.545 180.200 186.600 180.200 H 198.100 H 201.100 C 201.155 180.200 201.200 180.155 201.200 180.100 V 177.100 V 170.100 C 201.200 170.045 201.155 170.000 201.100 170.000 H 198.200 C 198.100 170.000 198.200 170.100 198.200 170.000 V 164.200 C 198.200 164.100 198.100 164.200 198.200 164.200 H 201.100 C 201.155 164.200 201.200 164.155 201.200 164.100 V 158.100 C 201.200 158.045 201.155 158.000 201.100 158.000 H 198.200 C 198.100 158.000 198.200 158.100 198.200 158.000 V 152.200 C 198.200 152.100 198.100 152.200 198.200 152.200 H 201.100 C 201.155 152.200 201.200 152.155 201.200 152.100 V 146.100 C 201.200 146.045 201.155 146.000 201.100 146.000 H 198.200 C 198.100 146.000 198.200 146.100 198.200 146.000 V 140.200 C 198.200 140.100 198.100 140.200 198.200 140.200 H 201.100 C 201.155 140.200 201.200 140.155 201.200 140.100 V 134.100 C 201.200 134.045 201.155 134.000 201.100 134.000 H 198.200 C 198.100 134.000 198.200 134.100 198.200 134.000 V 128.200 C 198.200 128.100 198.100 128.200 198.200 128.200 H 201.100 C 201.155 128.200 201.200 128.155 201.200 128.100 V 122.100 C 201.200 122.045 201.155 122.000 201.100 122.000 H 198.200 C 198.100 122.000 198.200 122.100 198.200 122.000 V 116.200 C 198.200 116.100 198.100 116.200 198.200 116.200 H 201.100 C 201.155 116.200 201.200 116.155 201.200 116.100 V 110.100 C 201.200 110.045 201.155 110.000 201.100 110.000 H 198.200 C 198.100 110.000 198.200 110.100 198.200 110.000 V 104.200 C 198.200 104.100 198.100 104.200 198.200 104.200 H 201.100 C 201.155 104.200 201.200 104.155 201.200 104.100 V 98.100 C 201.200 98.045 201.155 98.000 201.100 98.000 H 198.200 C 198.100 98.000 198.200 98.100 198.200 98.000 V 92.200 C 198.200 92.100 198.100 92.200 198.200 92.200 H 201.100 C 201.155 92.200 201.200 92.155 201.200 92.100 V 86.100 C 201.200 86.045 201.155 86.000 201.100 86.000 H 198.200 C 198.100 86.000 198.200 86.100 198.200 86.000 V 80.200 C 198.200 80.100 198.100 80.200 198.200 80.200 H 201.100 C 201.155 80.200 201.200 80.155 201.200 80.100 V 74.100 C 201.200 74.045 201.155 74.000 201.100 74.000 H 198.200 C 198.100 74.000 198.200 74.100 198.200 74.000 V 68.200 C 198.200 68.100 198.100 68.200 198.200 68.200 H 201.100 C 201.155 68.200 201.200 68.155 201.200 68.100 V 62.100 C 201.200 62.045 201.155 62.000 201.100 62.000 H 198.200 C 198.100 62.000 198.200 62.100 198.200 62.000 V 56.200 C 198.200 56.100 198.100 56.200 198.200 56.200 H 201.100 C 201.155 56.200 201.200 56.155 201.200 56.100 V 50.100 C 201.200 50.045 201.155 50.000 201.100 50.000 H 198.200 C 198.100 50.000 198.200 50.100 198.200 50.000 V 44.200 C 198.200 44.100 198.100 44.200 198.200 44.200 H 201.100 C 201.155 44.200 201.200 44.155 201.200 44.100 V 38.100 C 201.200 38.045 201.155 38.000 201.100 38.000 H 198.200 C 198.100 38.000 198.200 38.100 198.200 38.000 V 32.200 C 198.200 32.100 198.100 32.200 198.200 32.200 H 201.100 C 201.155 32.200 201.200 32.155 201.200 32.100 V 26.100 C 201.200 26.045 201.155 26.000 201.100 26.000 H 198.200 C 198.100 26.000 198.200 26.100 198.200 26.000 V 20.200 C 198.200 20.100 198.100 20.200 198.200 20.200 H 201.100 C 201.155 20.200 201.200 20.155 201.200 20.100 V 13.100 V 10.100 C 201.200 10.045 201.155 10.000 201.100 10.000 H 198.100 H 186.600 C 186.545 10.000 186.500 10.045 186.500 10.100 V 13.000 C 186.500 13.100 186.600 13.000 186.500 13.000 H 180.700 C 180.600 13.000 180.700 13.100 180.700 13.000 V 10.100 C 180.700 10.045 180.655 10.000 180.600 10.000 H 174.600 C 174.545 10.000 174.500 10.045 174.500 10.100 V 13.000 C 174.500 13.100 174.600 13.000 174.500 13.000 H 168.700 C 168.600 13.000 168.700 13.100 168.700 13.000 V 10.100 C 168.700 10.045 168.655 10.000 168.600 10.000 H 162.600 C 162.545 10.000 162.500 10.045 162.500 10.100 V 13.000 C 162.500 13.100 162.600 13.000 162.500 13.000 H 156.700 C 156.600 13.000 156.700 13.100 156.700 13.000 V 10.100 C 156.700 10.045 156.655 10.000 156.600 10.000 H 150.600 C 150.545 10.000 150.500 10.045 150.500 10.100 V 13.000 C 150.500 13.100 150.600 13.000 150.500 13.000 H 144.700 C 144.600 13.000 144.700 13.100 144.700 13.000 V 10.100 C 144.700 10.045 144.655 10.000 144.600 10.000 H 138.600 C 138.545 10.000 138.500 10.045 138.500 10.100 V 13.000 C 138.500 13.100 138.600 13.000 138.500 13.000 H 132.700 C 132.600 13.000 132.700 13.100 132.700 13.000 V 10.100 C 132.700 10.045 132.655 10.000 132.600 10.000 H 126.600 C 126.545 10.000 126.500 10.045 126.500 10.100 V 13.000 C 126.500 13.100 126.600 13.000 126.500 13.000 H 120.700 C 120.600 13.000 120.700 13.100 120.700 13.000 V 10.100 C 120.700 10.045 120.655 10.000 120.600 10.000 H 114.600 C 114.545 10.000 114.500 10.045 114.500 10.100 V 13.000 C 114.500 13.100 114.600 13.000 114.500 13.000 H 108.700 C 108.600 13.000 108.700 13.100 108.700 13.000 V 10.100 C 108.700 10.045 108.655 10.000 108.600 10.000 H 102.600 C 102.545 10.000 102.500 10.045 102.500 10.100 V 13.000 C 102.500 13.100 102.600 13.000 102.500 13.000 H 96.700 C 96.600 13.000 96.700 13.100 96.700 13.000 V 10.100 C 96.700 10.045 96.655 10.000 96.600 10.000 H 90.600 C 90.545 10.000 90.500 10.045 90.500 10.100 V 13.000 C 90.500 13.100 90.600 13.000 90.500 13.000 H 84.700 C 84.600 13.000 84.700 13.100 84.700 13.000 V 10.100 C 84.700 10.045 84.655 10.000 84.600 10.000 H 78.600 C 78.545 10.000 78.500 10.045 78.500 10.100 V 13.000 C 78.500 13.100 78.600 13.000 78.500 13.000 H 72.700 C 72.600 13.000 72.700 13.100 72.700 13.000 V 10.100 C 72.700 10.045 72.655 10.000 72.600 10.000 H 66.600 C 66.545 10.000 66.500 10.045 66.500 10.100 V 13.000 C 66.500 13.100 66.600 13.000 66.500 13.000 H 60.700 C 60.600 13.000 60.700 13.100 60.700 13.000 V 10.100 C 60.700 10.045 60.655 10.000 60.600 10.000 H 54.600 C 54.545 10.000 54.500 10.045 54.500 10.100 V 13.000 C 54.500 13.100 54.600 13.000 54.500 13.000 H 48.700 C 48.600 13.000 48.700 13.100 48.700 13.000 V 10.100 C 48.700 10.045 48.655 10.000 48.600 10.000 H 42.600 C 42.545 10.000 42.500 10.045 42.500 10.100 V 13.000 C 42.500 13.100 42.600 13.000 42.500 13.000 H 36.700 C 36.600 13.000 36.700 13.100 36.700 13.000 V 10.100 C 36.700 10.045 36.655 10.000 36.600 10.000 H 30.600 C 30.545 10.000 30.500 10.045 30.500 10.100 V 13.000 C 30.500 13.100 30.600 13.000 30.500 13.000 H 24.700 C 24.600 13.000 24.700 13.100 24.700 13.000 V 10.100 C 24.700 10.045 24.655 10.000 24.600 10.000 H 13.100 H 10.100 C 10.045 10.000 10.000 10.045 10.000 10.100 V 13.100 V 20.100 C 10.000 20.155 10.045 20.200 10.100 20.200 H 13.000 C 13.100 20.200 13.000 20.100 13.000 20.200 V 26.000 C 13.000 26.100 13.100 26.000 13.000 26.000 H 10.100 C 10.045 26.000 10.000 26.045 10.000 26.100 V 32.100 C 10.000 32.155 10.045 32.200 10.100 32.200 H 13.000 C 13.100 32.200 13.000 32.100 13.000 32.200 V 38.000 C 13.000 38.100 13.100 38.000 13.000 38.000 H 10.100 C 10.045 38.000 10.000 38.045 10.000 38.100 V 44.100 C 10.000 44.155 10.045 44.200 10.100 44.200 H 13.000 C 13.100 44.200 13.000 44.100 13.000 44.200 V 50.000 C 13.000 50.100 13.100 50.000 13.000 50.000 H 10.100 C 10.045 50.000 10.000 50.045 10.000 50.100 V 56.100 C 10.000 56.155 10.045 56.200 10.100 56.200 H 13.000 C 13.100 56.200 13.000 56.100 13.000 56.200 V 62.000 C 13.000 62.100 13.100 62.000 13.000 62.000 H 10.100 C 10.045 62.000 10.000 62.045 10.000 62.100 V 68.100 C 10.000 68.155 10.045 68.200 10.100 68.200 H 13.000 C 13.100 68.200 13.000 68.100 13.000 68.200 V 74.000 C 13.000 74.100 13.100 74.000 13.000 74.000 H 10.100 C 10.045 74.000 10.000 74.045 10.000 74.100 V 80.100 C 10.000 80.155 10.045 80.200 10.100 80.200 H 13.000 C 13.100 80.200 13.000 80.100 13.000 80.200 V 86.000 C 13.000 86.100 13.100 86.000 13.000 86.000 H 10.100 C 10.045 86.000 10.000 86.045 10.000 86.100 V 92.100 C 10.000 92.155 10.045 92.200 10.100 92.200 H 13.000 C 13.100 92.200 13.000 92.100 13.000 92.200 V 98.000 C 13.000 98.100 13.100 98.000 13.000 98.000 H 10.100 C 10.045 98.000 10.000 98.045 10.000 98.100 V 104.100 C 10.000 104.155 10.045 104.200 10.100 104.200 H 13.000 C 13.100 104.200 13.000 104.100 13.000 104.200 V 110.000 C 13.000 110.100 13.100 110.000 13.000 110.000 H 10.100 C 10.045 110.000 10.000 110.045 10.000 110.100 V 116.100 C 10.000 116.155 10.045 116.200 10.100 116.200 H 13.000 C 13.100 116.200 13.000 116.100 13.000 116.200 V 122.000 C 13.000 122.100 13.100 122.000 13.000 122.000 H 10.100 C 10.045 122.000 10.000 122.045 10.000 122.100 V 128.100 C 10.000 128.155 10.045 128.200 10.100 128.200 H 13.000 C 13.100 128.200 13.000 128.100 13.000 128.200 V 134.000 C 13.000 134.100 13.100 134.000 13.000 134.000 H 10.100 C 10.045 134.000 10.000 134.045 10.000 134.100 V 140.100 C 10.000 140.155 10.045 140.200 10.100 140.200 H 13.000 C 13.100 140.200 13.000 140.100 13.000 140.200 V 146.000 C 13.000 146.100 13.100 146.000 13.000 146.000 H 10.100 C 10.045 146.000 10.000 146.045 10.000 146.100 V 152.100 C 10.000 152.155 10.045 152.200 10.100 152.200 H 13.000 C 13.100 152.200 13.000 152.100 13.000 152.200 V 158.000 C 13.000 158.100 13.100 158.000 13.000 158.000 H 10.100 C 10.045 158.000 10.000 158.045 10.000 158.100 V 164.100 C 10.000 164.155 10.045 164.200 10.100 164.200 H 13.000 C 13.100 164.200 13.000 164.100 13.000 164.200 V 170.000 C 13.000 170.100 13.100 170.000 13.000 170.000 H 10.100 C 10.045 170.000 10.000 170.045 10.000 170.100 V 177.100 V 180.100 C 10.000 180.155 10.045 180.200 10.100 180.200 H 13.100 Z" stroke="rgb(0,0,0)" stroke-width="0.20" />
  <text dominant-baseline="hanging" font-size="4px" style="font-family: sans-serif ; font-weight: normal; font-style: normal; fill: rgb(255,0,0)" text-anchor="middle" transform="matrix( 1.000 0.000 0.000 1.000 105.600 93.200 )">top</text>
</g>
</svg>